<svg width="124" height="76" viewBox="0 0 124 76" fill="none" xmlns="http://www.w3.org/2000/svg">
<g id="Group">
<path id="Vector" d="M62.0768 0C28.0392 0 0.367432 27.6718 0.367432 61.7094C0.367432 62.6188 1.017 63.2684 1.92641 63.2684H33.2358C40.3811 63.2684 47.0067 66.1265 51.4238 71.1932C54.152 74.1812 57.9196 76 62.0768 76C66.1042 76 70.0016 74.3111 72.7298 71.1932C77.1469 66.2564 83.7726 63.2684 90.9178 63.2684H122.227C123.137 63.2684 123.786 62.6188 123.786 61.7094C123.786 27.6718 96.1144 0 62.0768 0ZM90.9178 60.1504C82.8632 60.1504 75.458 63.3983 70.3914 69.1145C68.3127 71.453 65.3247 72.882 62.0768 72.882C58.9589 72.882 55.9708 71.5829 53.7623 69.1145C48.6956 63.3983 41.2905 60.1504 33.2358 60.1504H3.48538C4.39478 28.5812 30.2478 3.11795 62.0768 3.11795C93.9059 3.11795 119.759 28.5812 120.668 60.1504H90.9178Z" fill="#AD7FBD"/>
<path id="Vector_2" d="M69.3521 46.769C69.3521 46.3792 68.9624 45.9895 68.5726 45.9895H67.7932V39.8835V39.6237H68.053C68.7026 39.6237 69.2222 40.1433 69.2222 40.7929C69.2222 42.0921 70.2615 43.2613 71.6906 43.2613C72.9897 43.2613 74.159 42.222 74.159 40.7929V33.3878C74.159 33.128 74.0291 32.998 73.8991 32.8681L70.7812 30.01C70.6513 29.8801 70.3914 29.7502 70.2615 29.7502C70.0017 29.7502 69.8718 29.8801 69.7419 30.01C69.612 30.1399 69.482 30.3998 69.482 30.5297C69.482 30.7895 69.612 30.9194 69.7419 31.0493L71.041 32.2186V34.2972C71.041 34.4271 71.041 34.557 71.1709 34.557L72.7299 35.9861V40.7929C72.7299 41.1827 72.3402 41.5724 71.9504 41.5724C71.5607 41.5724 71.1709 41.1827 71.1709 40.7929C71.1709 39.2339 69.8718 37.9348 68.3128 37.9348H68.053V27.8015C68.053 27.4117 67.6632 27.022 67.2735 27.022H56.3607C55.9709 27.022 55.5812 27.4117 55.5812 27.8015V45.7297H54.8017C54.412 45.7297 54.0222 46.1194 54.0222 46.5092C54.0222 46.8989 54.412 47.2886 54.8017 47.2886H68.5726C68.9624 47.5485 69.3521 47.1587 69.3521 46.769ZM71.6906 34.1673V32.998L72.6 33.7775V34.9468L71.6906 34.1673ZM66.2342 35.4664H57.0102V28.7109H66.2342V35.4664Z" fill="#AD7FBD"/>
<path id="Vector_3" d="M60.1281 19.8767H64.0255C64.4153 19.8767 64.6751 19.6169 64.6751 19.2271V9.48356C64.6751 9.09381 64.4153 8.83398 64.0255 8.83398H60.1281C59.7383 8.83398 59.4785 9.09381 59.4785 9.48356V19.2271C59.4785 19.6169 59.7383 19.8767 60.1281 19.8767Z" fill="#AD7FBD"/>
<path id="Vector_4" d="M21.9333 47.9387L12.5794 45.4703C12.1897 45.3404 11.7999 45.6002 11.7999 45.99L10.7606 49.6276C10.6307 50.0173 10.8905 50.4071 11.2803 50.4071L20.6341 52.8754C21.0238 53.0054 21.4136 52.7455 21.4136 52.3558L22.4529 48.5883C22.5828 48.4584 22.323 48.0686 21.9333 47.9387Z" fill="#AD7FBD"/>
<path id="Vector_5" d="M49.9948 10.9127C49.8649 10.523 49.4751 10.3931 49.2153 10.3931L47.7863 10.7828C47.3965 10.9127 47.2666 11.3025 47.2666 11.5623L48.9555 17.6683C49.0854 18.058 49.4752 18.1879 49.735 18.1879L51.164 17.7982C51.5538 17.6683 51.6837 17.2785 51.6837 17.0187L49.9948 10.9127Z" fill="#AD7FBD"/>
<path id="Vector_6" d="M37.263 15.72C37.1331 15.4601 36.6134 15.3302 36.3536 15.4601L35.0544 16.2396C34.7946 16.3695 34.6647 16.8892 34.7946 17.149L37.9126 22.6054C38.0425 22.8653 38.5621 22.9952 38.822 22.8653L40.1211 22.0858C40.3809 21.9559 40.5109 21.4362 40.3809 21.1764L37.263 15.72Z" fill="#AD7FBD"/>
<path id="Vector_7" d="M26.3504 23.774C26.0905 23.5141 25.7008 23.5141 25.441 23.774L24.4017 24.6834C24.1418 24.9432 24.1418 25.3329 24.4017 25.5928L28.9487 30.1398C29.2085 30.3996 29.5982 30.3996 29.8581 30.1398L30.8974 29.1005C31.1572 28.8406 31.1572 28.4509 30.8974 28.1911L26.3504 23.774Z" fill="#AD7FBD"/>
<path id="Vector_8" d="M23.3624 37.4154L17.906 34.2974C17.6462 34.1675 17.1265 34.1675 16.9966 34.5573L16.2171 35.8564C16.0872 36.1162 16.0872 36.6359 16.4769 36.7658L21.9333 39.8837C22.1932 40.0137 22.7128 40.0137 22.8427 39.6239L23.6222 38.3248C23.7521 38.0649 23.6222 37.6752 23.3624 37.4154Z" fill="#AD7FBD"/>
<path id="Vector_9" d="M101.701 48.848L102.74 52.6155C102.87 53.0052 103.26 53.1351 103.519 53.1351L112.873 50.6668C113.263 50.5368 113.393 50.1471 113.393 49.8873L112.354 46.1198C112.224 45.73 111.834 45.6001 111.574 45.6001L102.22 48.0685C101.83 48.0685 101.571 48.4582 101.701 48.848Z" fill="#AD7FBD"/>
<path id="Vector_10" d="M72.9896 17.9287L74.4187 18.3184C74.8084 18.4483 75.1982 18.1885 75.1982 17.7988L76.8871 11.6928C77.017 11.303 76.7572 10.9133 76.3674 10.9133L74.9383 10.5235C74.5486 10.3936 74.1589 10.6535 74.1589 11.0432L72.47 17.0193C72.47 17.409 72.5999 17.7988 72.9896 17.9287Z" fill="#AD7FBD"/>
<path id="Vector_11" d="M83.9025 22.216L85.2016 22.9955C85.4614 23.1254 85.9811 23.1254 86.111 22.7357L89.229 17.2793C89.3589 17.0195 89.3589 16.4998 88.9691 16.3699L87.67 15.5904C87.4102 15.4605 86.8905 15.4605 86.7606 15.8502L83.6426 21.3066C83.5127 21.5665 83.5127 21.9562 83.9025 22.216Z" fill="#AD7FBD"/>
<path id="Vector_12" d="M94.2957 30.1398C94.5555 30.3996 94.9453 30.3996 95.2051 30.1398L99.7521 25.5928C100.012 25.333 100.012 24.9432 99.7521 24.6834L98.7128 23.6441C98.453 23.3843 98.0632 23.3843 97.8034 23.6441L93.2564 28.1911C92.9966 28.4509 92.9966 28.8407 93.2564 29.1005L94.2957 30.1398Z" fill="#AD7FBD"/>
<path id="Vector_13" d="M100.532 38.3249L101.311 39.624C101.441 39.8839 101.961 40.0138 102.221 39.8839L107.677 36.7659C107.937 36.636 108.067 36.1164 107.937 35.8565L107.157 34.5574C107.027 34.2975 106.508 34.1676 106.248 34.2975L100.792 37.4155C100.532 37.6753 100.402 38.0651 100.532 38.3249Z" fill="#AD7FBD"/>
<path id="Vector_14" d="M20.4525 42.4819L58.3876 57.1623C59.4269 56.2529 60.726 55.7332 62.1551 55.7332C65.273 55.7332 67.8713 58.3315 67.8713 61.4495C67.8713 64.5674 65.273 67.1657 62.1551 67.1657C59.0371 67.1657 56.5688 64.6973 56.4389 61.5794L20.1927 43.1315C19.803 42.8717 20.0628 42.352 20.4525 42.4819Z" fill="#AD7FBD"/>
</g>
</svg>
