<svg width="124" height="76" viewBox="0 0 124 76" fill="none" xmlns="http://www.w3.org/2000/svg">
<g id="Group">
<path id="Vector" d="M62.0771 0C28.0395 0 0.367676 27.6718 0.367676 61.7094C0.367676 62.6188 1.01725 63.2684 1.92665 63.2684H33.236C40.3813 63.2684 47.007 66.1265 51.4241 71.1932C54.1523 74.1812 57.9198 76 62.0771 76C66.1044 76 70.0019 74.3111 72.7301 71.1932C77.1472 66.2564 83.7728 63.2684 90.9181 63.2684H122.228C123.137 63.2684 123.786 62.6188 123.786 61.7094C123.786 27.6718 96.1147 0 62.0771 0ZM90.9181 60.1504C82.8634 60.1504 75.4583 63.3983 70.3916 69.1145C68.313 71.453 65.3249 72.882 62.0771 72.882C58.9591 72.882 55.9711 71.5829 53.7625 69.1145C48.6959 63.3983 41.2907 60.1504 33.236 60.1504H3.48562C4.39503 28.5812 30.248 3.11795 62.0771 3.11795C93.9061 3.11795 119.759 28.5812 120.669 60.1504H90.9181Z" fill="#AD7FBD"/>
<path id="Vector_2" d="M69.3524 46.769C69.3524 46.3792 68.9626 45.9895 68.5729 45.9895H67.7934V39.8835V39.6237H68.0532C68.7028 39.6237 69.2225 40.1433 69.2225 40.7929C69.2225 42.0921 70.2618 43.2613 71.6908 43.2613C72.99 43.2613 74.1592 42.222 74.1592 40.7929V33.3878C74.1592 33.128 74.0293 32.998 73.8994 32.8681L70.7814 30.01C70.6515 29.8801 70.3917 29.7502 70.2618 29.7502C70.0019 29.7502 69.872 29.8801 69.7421 30.01C69.6122 30.1399 69.4823 30.3998 69.4823 30.5297C69.4823 30.7895 69.6122 30.9194 69.7421 31.0493L71.0413 32.2186V34.2972C71.0413 34.4271 71.0413 34.557 71.1712 34.557L72.7302 35.9861V40.7929C72.7302 41.1827 72.3404 41.5724 71.9507 41.5724C71.5609 41.5724 71.1712 41.1827 71.1712 40.7929C71.1712 39.2339 69.872 37.9348 68.3131 37.9348H68.0532V27.8015C68.0532 27.4117 67.6635 27.022 67.2737 27.022H56.3609C55.9712 27.022 55.5814 27.4117 55.5814 27.8015V45.7297H54.802C54.4122 45.7297 54.0225 46.1194 54.0225 46.5092C54.0225 46.8989 54.4122 47.2886 54.802 47.2886H68.5729C68.9626 47.5485 69.3524 47.1587 69.3524 46.769ZM71.6908 34.1673V32.998L72.6002 33.7775V34.9468L71.6908 34.1673ZM66.2344 35.4664H57.0105V28.7109H66.2344V35.4664Z" fill="#AD7FBD"/>
<path id="Vector_3" d="M60.1286 19.8767H64.026C64.4158 19.8767 64.6756 19.6169 64.6756 19.2271V9.48356C64.6756 9.09381 64.4158 8.83398 64.026 8.83398H60.1286C59.7388 8.83398 59.479 9.09381 59.479 9.48356V19.2271C59.479 19.6169 59.7388 19.8767 60.1286 19.8767Z" fill="#AD7FBD"/>
<path id="Vector_4" d="M21.9335 47.9387L12.5796 45.4703C12.1899 45.3404 11.8002 45.6002 11.8002 45.99L10.7608 49.6276C10.6309 50.0173 10.8908 50.4071 11.2805 50.4071L20.6343 52.8754C21.0241 53.0054 21.4138 52.7455 21.4138 52.3558L22.4532 48.5883C22.5831 48.4584 22.3232 48.0686 21.9335 47.9387Z" fill="#AD7FBD"/>
<path id="Vector_5" d="M49.9953 10.9127C49.8654 10.523 49.4756 10.3931 49.2158 10.3931L47.7867 10.7828C47.397 10.9127 47.2671 11.3025 47.2671 11.5623L48.956 17.6683C49.0859 18.058 49.4756 18.1879 49.7355 18.1879L51.1645 17.7982C51.5543 17.6683 51.6842 17.2785 51.6842 17.0187L49.9953 10.9127Z" fill="#AD7FBD"/>
<path id="Vector_6" d="M37.2635 15.72C37.1336 15.4601 36.6139 15.3302 36.3541 15.4601L35.0549 16.2396C34.7951 16.3695 34.6652 16.8892 34.7951 17.149L37.9131 22.6054C38.043 22.8653 38.5626 22.9952 38.8225 22.8653L40.1216 22.0858C40.3814 21.9559 40.5113 21.4362 40.3814 21.1764L37.2635 15.72Z" fill="#AD7FBD"/>
<path id="Vector_7" d="M26.3506 23.774C26.0908 23.5141 25.701 23.5141 25.4412 23.774L24.4019 24.6834C24.1421 24.9432 24.1421 25.3329 24.4019 25.5928L28.9489 30.1398C29.2087 30.3996 29.5985 30.3996 29.8583 30.1398L30.8976 29.1005C31.1575 28.8406 31.1575 28.4509 30.8976 28.1911L26.3506 23.774Z" fill="#AD7FBD"/>
<path id="Vector_8" d="M23.3626 37.4154L17.9062 34.2974C17.6464 34.1675 17.1267 34.1675 16.9968 34.5573L16.2173 35.8564C16.0874 36.1162 16.0874 36.6359 16.4772 36.7658L21.9336 39.8837C22.1934 40.0137 22.7131 40.0137 22.843 39.6239L23.6225 38.3248C23.7524 38.0649 23.6225 37.6752 23.3626 37.4154Z" fill="#AD7FBD"/>
<path id="Vector_9" d="M101.701 48.848L102.74 52.6155C102.87 53.0052 103.26 53.1351 103.52 53.1351L112.873 50.6668C113.263 50.5368 113.393 50.1471 113.393 49.8873L112.354 46.1198C112.224 45.73 111.834 45.6001 111.574 45.6001L102.22 48.0685C101.831 48.0685 101.571 48.4582 101.701 48.848Z" fill="#AD7FBD"/>
<path id="Vector_10" d="M72.9899 17.9287L74.4189 18.3184C74.8087 18.4483 75.1984 18.1885 75.1984 17.7988L76.8873 11.6928C77.0172 11.303 76.7574 10.9133 76.3677 10.9133L74.9386 10.5235C74.5488 10.3936 74.1591 10.6535 74.1591 11.0432L72.4702 17.0193C72.4702 17.409 72.6001 17.7988 72.9899 17.9287Z" fill="#AD7FBD"/>
<path id="Vector_11" d="M83.903 22.216L85.2021 22.9955C85.4619 23.1254 85.9816 23.1254 86.1115 22.7357L89.2295 17.2793C89.3594 17.0195 89.3594 16.4998 88.9696 16.3699L87.6705 15.5904C87.4106 15.4605 86.891 15.4605 86.7611 15.8502L83.6431 21.3066C83.5132 21.5665 83.5132 21.9562 83.903 22.216Z" fill="#AD7FBD"/>
<path id="Vector_12" d="M94.2957 30.1398C94.5555 30.3996 94.9453 30.3996 95.2051 30.1398L99.7521 25.5928C100.012 25.333 100.012 24.9432 99.7521 24.6834L98.7128 23.6441C98.453 23.3843 98.0632 23.3843 97.8034 23.6441L93.2564 28.1911C92.9966 28.4509 92.9966 28.8407 93.2564 29.1005L94.2957 30.1398Z" fill="#AD7FBD"/>
<path id="Vector_13" d="M100.532 38.3249L101.311 39.624C101.441 39.8839 101.961 40.0138 102.221 39.8839L107.677 36.7659C107.937 36.636 108.067 36.1164 107.937 35.8565L107.158 34.5574C107.028 34.2975 106.508 34.1676 106.248 34.2975L100.792 37.4155C100.532 37.6753 100.402 38.0651 100.532 38.3249Z" fill="#AD7FBD"/>
<path id="Vector_14" d="M103.78 42.4819L65.8446 57.1623C64.8053 56.2529 63.5061 55.7332 62.0771 55.7332C58.9591 55.7332 56.3608 58.3315 56.3608 61.4495C56.3608 64.5674 58.9591 67.1657 62.0771 67.1657C65.195 67.1657 67.6634 64.6973 67.7933 61.5794L104.039 43.1315C104.429 42.8717 104.169 42.352 103.78 42.4819Z" fill="#AD7FBD"/>
</g>
</svg>
