<svg width="16" height="17" viewBox="0 0 16 17" fill="none" xmlns="http://www.w3.org/2000/svg">
    <path fill-rule="evenodd" clip-rule="evenodd"
            d="M14.1166 12.2083L0.924919 8.675C0.558252 8.575 0.308252 8.25 0.308252 7.86667V4.74167C0.308252 4.46667 0.566585 4.26667 0.833252 4.34167L1.10825 4.41667C1.36659 4.48333 1.56659 4.66667 1.66659 4.90833L2.29159 6.45833L6.44159 7.55833V1.825C6.44159 1.23333 6.99992 0.808332 7.56659 0.958332C7.86659 1.04167 8.09992 1.26667 8.19159 1.56667L10.3416 8.60833L14.7666 9.79167C15.4333 9.975 15.8249 10.6583 15.6499 11.325C15.4666 11.9917 14.7833 12.3833 14.1166 12.2083ZM0.916585 14.8333H15.0833C15.5416 14.8333 15.9166 15.2083 15.9166 15.6667C15.9166 16.125 15.5416 16.5 15.0833 16.5H0.916585C0.458252 16.5 0.083252 16.125 0.083252 15.6667C0.083252 15.2083 0.458252 14.8333 0.916585 14.8333Z"
            fill="#C1C9D2" />
</svg>
