<svg width="24" height="10" viewBox="0 0 24 10" fill="none" xmlns="http://www.w3.org/2000/svg">
<path d="M22.4437 0.0986956L22.3285 0.0767768C21.4592 -0.0893013 20.5595 0.0155613 19.7519 0.37674L14.2113 2.85467L6.60525 0.881314L4.33431 1.89693L9.20186 5.09504L5.37344 6.80713L1.52365 5.31798L0 5.99929L2.50676 8.46791L2.51547 8.46416C2.54515 8.5003 2.58531 8.52953 2.63616 8.54749L5.2114 9.48212C5.48265 9.57809 5.7806 9.56625 6.04317 9.44875L20.8978 3.21501C21.7752 2.82263 22.5105 2.17058 23.0043 1.34711C23.3022 0.849678 23.0142 0.207893 22.4438 0.0989L22.4437 0.0986956Z" fill="black"/>
</svg>
