<svg width="17" height="21" viewBox="0 0 17 21" fill="none" xmlns="http://www.w3.org/2000/svg">
    <path fill-rule="evenodd" clip-rule="evenodd"
            d="M12.1437 0C12.2287 1.16199 11.8473 2.30997 11.0837 3.19C10.3778 4.09473 9.2912 4.61956 8.14371 4.61C8.04576 3.48718 8.40649 2.37253 9.14371 1.52C9.90571 0.639556 10.9831 0.093687 12.1437 0ZM15.7637 6.82C14.434 7.6317 13.6173 9.07218 13.6037 10.63C13.6103 12.391 14.6639 13.9792 16.2837 14.67C15.9636 15.6816 15.4988 16.6415 14.9037 17.52C14.0637 18.73 13.1437 19.94 11.8437 19.97C11.2116 19.9846 10.7758 19.7982 10.3189 19.6029C9.83609 19.3965 9.32981 19.18 8.54371 19.18C7.73293 19.18 7.23105 19.3962 6.74193 19.607C6.30805 19.7939 5.88421 19.9765 5.26371 20C3.94371 20.05 2.94371 18.68 2.14371 17.47C0.38371 15 -0.92629 10.45 0.83371 7.39C1.67303 5.87755 3.24492 4.91695 4.97371 4.86C5.70238 4.84879 6.3902 5.12348 7.0002 5.36709C7.47849 5.5581 7.90894 5.73 8.27371 5.73C8.60059 5.73 9.02207 5.56404 9.50824 5.37262C10.2565 5.07798 11.1581 4.72301 12.1037 4.82C13.5706 4.87302 14.9268 5.61411 15.7637 6.82Z"
            fill="white" />
</svg>
