<svg width="13" height="14" viewBox="0 0 13 14" fill="none" xmlns="http://www.w3.org/2000/svg">
    <path fill-rule="evenodd" clip-rule="evenodd"
            d="M10.25 2H10.875C11.5625 2 12.125 2.5625 12.125 3.25V12C12.125 12.6875 11.5625 13.25 10.875 13.25H2.125C1.43125 13.25 0.875 12.6875 0.875 12L0.88125 3.25C0.88125 2.5625 1.43125 2 2.125 2H2.75V0.75H4V2H9V0.75H10.25V2ZM4.625 7.625V6.375H3.375V7.625H4.625ZM10.875 12H2.125V5.75H10.875V12ZM2.125 4.5H10.875V3.25H2.125V4.5ZM9.625 6.375V7.625H8.375V6.375H9.625ZM7.125 6.375H5.875V7.625H7.125V6.375Z"
            fill="black" />
</svg>
