<svg width="21" height="19" viewBox="0 0 21 19" fill="none" xmlns="http://www.w3.org/2000/svg">
<path id="Vector" d="M19.2251 6.58252C19.101 6.58252 18.9749 6.58252 18.8507 6.58252C18.4222 6.60331 18.0171 6.7865 17.7156 7.09577C17.2308 5.87556 16.6239 4.49958 16.2416 3.93641C15.5636 2.94986 14.5783 2.67626 13.8945 2.55444C13.5477 2.49253 13.2028 2.45059 12.8619 2.41664V1.41811C12.8619 1.34861 12.8484 1.27979 12.8221 1.21558C12.7959 1.15138 12.7574 1.09303 12.7089 1.04389C12.6604 0.994748 12.6029 0.955766 12.5395 0.92917C12.4761 0.902574 12.4082 0.888885 12.3397 0.888885H8.63877C8.5013 0.890988 8.37019 0.947945 8.27389 1.0474C8.1776 1.14685 8.1239 1.28077 8.12443 1.4201V2.41864C7.78154 2.45059 7.43667 2.49453 7.09181 2.55644C6.40799 2.67626 5.42266 2.95585 4.74476 3.93841C4.36442 4.49359 3.75943 5.87756 3.27071 7.09776C2.96973 6.78895 2.56538 6.6058 2.13758 6.58452C2.01146 6.58452 1.88731 6.58452 1.76316 6.58452C1.50341 6.58963 1.25571 6.69647 1.07201 6.88264C0.888308 7.0688 0.782877 7.31982 0.777832 7.58305C0.777832 7.79873 0.777832 8.03039 0.777832 8.31398C0.784372 8.58694 0.894555 8.84683 1.08544 9.03953C1.27632 9.23222 1.5332 9.34288 1.80257 9.34846H2.24006H2.29721C2.24597 9.41769 2.1967 9.48426 2.14941 9.54816C1.51398 10.5256 1.28653 11.7183 1.51683 12.8653L1.98978 15.3756C2.03224 15.6312 2.15532 15.8659 2.34056 16.0446C2.42155 16.1204 2.51404 16.1824 2.61448 16.2283C2.61448 16.476 2.61448 16.7216 2.61448 16.9693C2.6066 17.1206 2.63011 17.2719 2.6835 17.4135C2.73688 17.5551 2.81895 17.6837 2.92442 17.7912C3.02989 17.8986 3.15641 17.9825 3.29582 18.0373C3.43523 18.0922 3.58443 18.1168 3.73381 18.1096H4.81964C5.12453 18.1091 5.41675 17.9859 5.63215 17.7673C5.84755 17.5486 5.96853 17.2523 5.96853 16.9433V16.7037C7.46229 16.8035 8.96984 16.8554 10.4557 16.8554H10.5247C12.0106 16.8554 13.5181 16.8055 15.0119 16.7037V16.9433C15.0119 17.2523 15.1328 17.5486 15.3482 17.7673C15.5637 17.9859 15.8559 18.1091 16.1608 18.1096H17.2466C17.3964 18.1176 17.5463 18.0937 17.6864 18.0392C17.8265 17.9847 17.9538 17.901 18.0599 17.7935C18.166 17.686 18.2486 17.557 18.3024 17.415C18.3561 17.273 18.3798 17.1211 18.3718 16.9693C18.3718 16.7216 18.3718 16.476 18.3718 16.2283C18.4723 16.1824 18.5648 16.1204 18.6458 16.0446C18.831 15.8659 18.9541 15.6312 18.9965 15.3756L19.4695 12.8653C19.6984 11.7256 19.4754 10.5405 18.8487 9.56614C18.8014 9.49557 18.7522 9.429 18.7009 9.36643H18.76H19.1975C19.4669 9.36085 19.7238 9.2502 19.9147 9.0575C20.1056 8.8648 20.2157 8.60491 20.2223 8.33195C20.2223 8.04837 20.2223 7.81671 20.2223 7.60102C20.2223 7.33228 20.1175 7.07442 19.9307 6.88364C19.7439 6.69286 19.4903 6.58463 19.2251 6.58252ZM5.56258 13.3146C5.29443 13.3146 5.03229 13.234 4.80933 13.0831C4.58637 12.9321 4.41259 12.7175 4.30998 12.4664C4.20736 12.2154 4.18051 11.9391 4.23282 11.6726C4.28514 11.4061 4.41426 11.1613 4.60388 10.9691C4.79349 10.7769 5.03507 10.6461 5.29807 10.5931C5.56108 10.5401 5.83368 10.5673 6.08143 10.6713C6.32917 10.7752 6.54092 10.9514 6.68989 11.1773C6.83887 11.4033 6.91839 11.6689 6.91839 11.9406C6.91839 12.3051 6.77555 12.6545 6.52128 12.9122C6.26702 13.1699 5.92216 13.3146 5.56258 13.3146ZM5.10736 8.12226C5.57637 6.92402 6.17348 5.55203 6.44937 5.14863C6.60309 4.92496 6.82971 4.74921 7.4347 4.64537C8.44212 4.49102 9.46071 4.42421 10.4794 4.44566C11.498 4.42406 12.5166 4.49087 13.524 4.64537C14.131 4.75321 14.3556 4.92296 14.5093 5.14663C14.7872 5.54604 15.3843 6.92402 15.8514 8.12026L5.10736 8.12226ZM15.4158 13.3146C15.1477 13.3146 14.8856 13.234 14.6626 13.0831C14.4396 12.9321 14.2659 12.7175 14.1632 12.4664C14.0606 12.2154 14.0338 11.9391 14.0861 11.6726C14.1384 11.4061 14.2675 11.1613 14.4571 10.9691C14.6468 10.7769 14.8883 10.6461 15.1513 10.5931C15.4143 10.5401 15.687 10.5673 15.9347 10.6713C16.1824 10.7752 16.3942 10.9514 16.5432 11.1773C16.6921 11.4033 16.7717 11.6689 16.7717 11.9406C16.7717 12.3051 16.6288 12.6545 16.3746 12.9122C16.1203 13.1699 15.7754 13.3146 15.4158 13.3146Z" fill="#B080BC"/>
</svg>
