<svg width="16" height="15" viewBox="0 0 16 15" fill="none" xmlns="http://www.w3.org/2000/svg">
    <path fill-rule="evenodd" clip-rule="evenodd"
            d="M12.5833 0.918091C13.1333 0.918091 13.6 1.26235 13.7667 1.74596L15.4083 6.3935C15.4667 6.56563 15.5 6.75416 15.5 6.93448V12.8033C15.5 13.4837 14.9333 14.0328 14.25 14.0328C13.5583 14.0328 13 13.4755 13 12.8033V12.3935H3V12.8033C3 13.4837 2.44167 14.0328 1.75 14.0328C1.05833 14.0328 0.5 13.4837 0.5 12.8033V6.93448C0.5 6.74596 0.533333 6.56563 0.591667 6.3935L2.23333 1.74596C2.40833 1.26235 2.86667 0.918091 3.41667 0.918091H12.5833ZM2.16667 8.70498C2.16667 9.3853 2.725 9.93448 3.41667 9.93448C4.10833 9.93448 4.66667 9.3853 4.66667 8.70498C4.66667 8.02465 4.10833 7.47547 3.41667 7.47547C2.725 7.47547 2.16667 8.02465 2.16667 8.70498ZM12.5833 9.93448C11.8917 9.93448 11.3333 9.3853 11.3333 8.70498C11.3333 8.02465 11.8917 7.47547 12.5833 7.47547C13.275 7.47547 13.8333 8.02465 13.8333 8.70498C13.8333 9.3853 13.275 9.93448 12.5833 9.93448ZM3.225 2.70498L2.16667 5.83612H13.8333L12.775 2.70498C12.6583 2.37711 12.3417 2.1476 11.9833 2.1476H4.01667C3.65833 2.1476 3.34167 2.37711 3.225 2.70498Z"
            fill="white" />
</svg>
