<svg width="12" height="12" viewBox="0 0 12 12" fill="none" xmlns="http://www.w3.org/2000/svg">
<path fill-rule="evenodd" clip-rule="evenodd" d="M5.99416 0.166668C2.77416 0.166668 0.166656 2.78 0.166656 6C0.166656 9.22 2.77416 11.8333 5.99416 11.8333C9.21999 11.8333 11.8333 9.22 11.8333 6C11.8333 2.78 9.21999 0.166668 5.99416 0.166668ZM5.99999 10.6667C3.42166 10.6667 1.33332 8.57833 1.33332 6C1.33332 3.42167 3.42166 1.33333 5.99999 1.33333C8.57832 1.33333 10.6667 3.42167 10.6667 6C10.6667 8.57833 8.57832 10.6667 5.99999 10.6667ZM5.83666 3.08333H5.87166C6.10499 3.08333 6.29166 3.27 6.29166 3.50333V6.15167L8.54916 7.49333C8.75332 7.61 8.81749 7.8725 8.69499 8.07084C8.57832 8.26917 8.32166 8.3275 8.12332 8.21083L5.70249 6.75833C5.52166 6.65333 5.41666 6.46083 5.41666 6.25667V3.50333C5.41666 3.27 5.60332 3.08333 5.83666 3.08333Z" fill="#6D90AC"/>
</svg>
