<svg width="22" height="15" viewBox="0 0 22 15" fill="none" xmlns="http://www.w3.org/2000/svg">
<path d="M21.5047 13.3344L21.4361 13.2313C20.9189 12.4526 20.1753 11.8523 19.3066 11.5118L13.3467 9.17578L9.21206 1.97648L6.76946 1.01898L7.95875 7.06379L3.84102 5.44992L2.1175 1.4419L0.47876 0.799438L0.472799 4.52279L0.481943 4.52642C0.476738 4.57554 0.484435 4.6279 0.508402 4.67935L1.70749 7.31467C1.83572 7.59041 2.06474 7.80611 2.34717 7.91685L18.0165 14.4833C18.9602 14.8532 19.9945 14.9231 20.9792 14.6836C21.5736 14.539 21.8439 13.8451 21.5046 13.3346L21.5047 13.3344Z" fill="black"/>
</svg>
