<svg width="30" height="30" viewBox="0 0 30 30" fill="none" xmlns="http://www.w3.org/2000/svg">
<g id="Group 8722">
<circle id="Ellipse 165" cx="15" cy="15" r="15" fill="#AD7FBD"/>
<g id="Mask group">
<mask id="mask0_257_1002" style="mask-type:alpha" maskUnits="userSpaceOnUse" x="0" y="0" width="30" height="30">
<circle id="Ellipse 166" cx="15" cy="15" r="15" fill="#AD7FBD"/>
</mask>
<g mask="url(#mask0_257_1002)">
<g id="Group">
<g id="Group_2">
<g id="Group_3">
<path id="Vector" d="M23.3652 33.2797V26.8651C23.3652 25.5769 22.3209 24.5325 21.0326 24.5325H7.9703C6.68206 24.5325 5.6377 25.5769 5.6377 26.8651V33.2797H23.3652Z" fill="#273B4A"/>
</g>
</g>
<g id="Group_4">
<g id="Group_5">
<path id="Vector_2" d="M23.3653 33.5362H5.63779C5.49623 33.5362 5.38135 33.4214 5.38135 33.2798V26.8653C5.38135 25.4376 6.54278 24.2763 7.9704 24.2763H21.0327C22.4603 24.2763 23.6218 25.4378 23.6218 26.8653V33.2798C23.6218 33.4215 23.507 33.5362 23.3653 33.5362ZM5.89423 33.0234H23.1089V26.8653C23.1089 25.7205 22.1775 24.7892 21.0327 24.7892H7.9704C6.82564 24.7892 5.89423 25.7206 5.89423 26.8653V33.0234Z" fill="black" fill-opacity="0.85"/>
</g>
</g>
<g id="Group_6">
<g id="Group_7">
<path id="Vector_3" d="M8.2501 33.5364C8.10854 33.5364 7.99365 33.4215 7.99365 33.2799V27.7206C7.99365 27.5791 8.10854 27.4642 8.2501 27.4642C8.39165 27.4642 8.50654 27.5791 8.50654 27.7206V33.2799C8.50654 33.4216 8.39165 33.5364 8.2501 33.5364Z" fill="black" fill-opacity="0.85"/>
</g>
</g>
<g id="Group_8">
<g id="Group_9">
<path id="Vector_4" d="M14.5013 24.5325H10.1401L14.5013 33.2797L18.8625 24.5325H14.5013Z" fill="#E0EBFC"/>
</g>
</g>
<g id="Group_10">
<g id="Group_11">
<path id="Vector_5" d="M15.3202 28.0319H14.5016H13.6829L13.1191 30.5073L14.5016 33.2801L15.8841 30.5073L15.3202 28.0319Z" fill="#1A1A1A"/>
</g>
</g>
<g id="Group_12">
<g id="Group_13">
<path id="Vector_6" d="M8.25 24.5325L10.5048 30.6556H12.0987L11.4231 31.4137L14.5016 33.2797L10.1404 24.5325H8.25Z" fill="#273B4A"/>
</g>
</g>
<g id="Group_14">
<g id="Group_15">
<path id="Vector_7" d="M20.753 24.5325H18.8627L14.5015 33.2797L17.5798 31.4137L16.9042 30.6556H18.4981L20.753 24.5325Z" fill="#273B4A"/>
</g>
</g>
<g id="Group_16">
<g id="Group_17">
<path id="Vector_8" d="M14.5014 33.5364C14.4042 33.5364 14.3153 33.4814 14.2719 33.3944L9.91071 24.6473C9.87109 24.5678 9.87545 24.4734 9.92212 24.3979C9.96893 24.3224 10.0514 24.2763 10.1402 24.2763H18.8626C18.9515 24.2763 19.0339 24.3222 19.0807 24.3979C19.1275 24.4734 19.1318 24.5678 19.0921 24.6473L14.7309 33.3944C14.6875 33.4814 14.5986 33.5364 14.5014 33.5364ZM10.5546 24.7892L14.5014 32.7051L18.4482 24.7892H10.5546Z" fill="black" fill-opacity="0.85"/>
</g>
</g>
<g id="Group_18">
<g id="Group_19">
<path id="Vector_9" d="M11.8348 27.9319L14.5013 25.1548L11.4229 22.9761L10.1401 24.5327L11.8348 27.9319Z" fill="#E0EBFC"/>
</g>
</g>
<g id="Group_20">
<g id="Group_21">
<path id="Vector_10" d="M17.1678 27.9319L14.5015 25.1548L17.5798 22.9761L18.8627 24.5327L17.1678 27.9319Z" fill="#E0EBFC"/>
</g>
</g>
<g id="Group_22">
<g id="Group_23">
<path id="Vector_11" d="M11.8349 28.1885C11.8221 28.1885 11.8092 28.1876 11.7963 28.1855C11.7139 28.173 11.6427 28.1212 11.6054 28.0466L9.91071 24.6474C9.86558 24.5568 9.87789 24.448 9.94238 24.3698L11.2251 22.8132C11.3106 22.7096 11.4616 22.6895 11.5712 22.767L14.6497 24.9456C14.7107 24.9887 14.7498 25.0563 14.7568 25.1307C14.7639 25.205 14.7383 25.2788 14.6866 25.3326L12.0202 28.1098C11.9712 28.1604 11.9042 28.1885 11.8349 28.1885ZM10.444 24.5675L11.9021 27.492L14.1101 25.1922L11.4694 23.3233L10.444 24.5675Z" fill="black" fill-opacity="0.85"/>
</g>
</g>
<g id="Group_24">
<g id="Group_25">
<path id="Vector_12" d="M16.9831 28.1097L14.3166 25.3326C14.2649 25.2787 14.2391 25.205 14.2463 25.1306C14.2535 25.0562 14.2925 24.9888 14.3535 24.9456L17.432 22.767C17.5415 22.6895 17.6926 22.7095 17.778 22.8131L19.0608 24.3697C19.1251 24.4478 19.1376 24.5567 19.0924 24.6473L17.3977 28.0465C17.3184 28.2051 17.1059 28.2376 16.9831 28.1097ZM14.8928 25.1923L17.1009 27.4921L18.559 24.5676L17.5336 23.3233L14.8928 25.1923Z" fill="black" fill-opacity="0.85"/>
</g>
</g>
<g id="Group_26">
<g id="Group_27">
<path id="Vector_13" d="M11.4229 20.2953V21.8398V22.9761L14.5013 25.1548L17.5738 22.9804V20.2953H11.4229Z" fill="#F9CFCF"/>
</g>
</g>
<g id="Group_28">
<g id="Group_29">
<path id="Vector_14" d="M14.5015 25.4114C14.4496 25.4114 14.3978 25.3957 14.3535 25.3643L11.2749 23.1857C11.2069 23.1376 11.1665 23.0596 11.1665 22.9764V20.2955C11.1665 20.154 11.2814 20.0391 11.4229 20.0391H17.5739C17.7154 20.0391 17.8303 20.154 17.8303 20.2955V22.9806C17.8303 23.0638 17.7899 23.1419 17.722 23.1899L14.6496 25.3643C14.6053 25.3957 14.5533 25.4114 14.5015 25.4114ZM11.6794 22.8437L14.5013 24.8409L17.3173 22.8479V20.552H11.6794V22.8437Z" fill="black" fill-opacity="0.85"/>
</g>
</g>
<g id="Group_30">
<g id="Group_31">
<path id="Vector_15" d="M14.5015 21.2639C10.4326 21.2639 7.13428 17.9655 7.13428 13.8967V11.5154H21.8687V13.8967C21.8687 17.9654 18.5702 21.2639 14.5015 21.2639Z" fill="#273B4A"/>
</g>
</g>
<g id="Group_32">
<g id="Group_33">
<path id="Vector_16" d="M14.5016 21.5203C10.2979 21.5203 6.87793 18.1003 6.87793 13.8966V11.5153C6.87793 11.3737 6.99282 11.2588 7.13437 11.2588H21.8688C22.0104 11.2588 22.1253 11.3737 22.1253 11.5153V13.8966C22.1253 18.1002 18.7052 21.5203 14.5016 21.5203ZM7.39082 11.7717V13.8966C7.39082 17.8175 10.5807 21.0074 14.5016 21.0074C18.4225 21.0074 21.6124 17.8175 21.6124 13.8966V11.7717H7.39082Z" fill="black" fill-opacity="0.85"/>
</g>
</g>
<g id="Group_34">
<g id="Group_35">
<path id="Vector_17" d="M20.7762 14.3946V13.8071C20.7762 10.373 17.9669 7.5889 14.5016 7.5889C11.0361 7.5889 8.22692 10.3728 8.22692 13.8071V14.3946C7.13742 14.3726 6.27295 15.2405 6.27295 16.2898C6.27295 17.4102 7.25102 18.2963 8.39271 18.1755C9.04023 20.9266 11.5287 22.9763 14.5017 22.9763C17.4748 22.9763 19.9632 20.9264 20.6107 18.1755C21.7508 18.296 22.7304 17.4116 22.7304 16.2898C22.7302 15.24 21.8652 14.3725 20.7762 14.3946Z" fill="#F9CFCF"/>
</g>
</g>
<g id="Group_36">
<g id="Group_37">
<path id="Vector_18" d="M14.5009 20.0127C14.2445 20.0127 14.0207 19.9826 13.817 19.9205C13.4787 19.8176 13.182 19.6445 12.9592 19.4197C12.8594 19.3192 12.8601 19.1567 12.9606 19.0569C13.0611 18.9572 13.2234 18.958 13.3233 19.0584C13.4867 19.223 13.709 19.3515 13.9663 19.4297C14.1211 19.4767 14.296 19.4997 14.501 19.4997C14.7061 19.4997 14.881 19.4767 15.0357 19.4297C15.2929 19.3515 15.5154 19.223 15.6787 19.0584C15.7784 18.9578 15.9408 18.9572 16.0414 19.0569C16.1419 19.1567 16.1425 19.319 16.0428 19.4196C15.8198 19.6442 15.5232 19.8174 15.185 19.9204C14.981 19.9826 14.7573 20.0127 14.5009 20.0127Z" fill="black" fill-opacity="0.85"/>
</g>
</g>
<g id="Group_38">
<g id="Group_39">
<path id="Vector_19" d="M17.7589 17.5817C17.3209 17.5817 16.9658 17.2267 16.9658 16.7887V15.9426C16.9658 15.5046 17.3209 15.1496 17.7589 15.1496C18.1969 15.1496 18.5519 15.5046 18.5519 15.9426V16.7887C18.5519 17.2267 18.1969 17.5817 17.7589 17.5817Z" fill="black" fill-opacity="0.85"/>
</g>
</g>
<g id="Group_40">
<g id="Group_41">
<path id="Vector_20" d="M11.2423 17.5817C10.8043 17.5817 10.4492 17.2267 10.4492 16.7887V15.9426C10.4492 15.5046 10.8043 15.1496 11.2423 15.1496C11.6803 15.1496 12.0353 15.5046 12.0353 15.9426V16.7887C12.0354 17.2267 11.6803 17.5817 11.2423 17.5817Z" fill="black" fill-opacity="0.85"/>
</g>
</g>
<g id="Group_42">
<g id="Group_43">
<path id="Vector_21" d="M14.5017 23.2326C11.5232 23.2326 8.96044 21.2736 8.19573 18.4426C7.65143 18.4471 7.13149 18.2469 6.72926 17.885C6.27638 17.4775 6.0166 16.896 6.0166 16.2896C6.0166 15.7093 6.24599 15.1649 6.66233 14.7569C7.01942 14.407 7.47666 14.1957 7.97057 14.148V13.807C7.97057 10.2369 10.9004 7.33234 14.5018 7.33234C18.1032 7.33234 21.0328 10.2368 21.0328 13.807V14.148C21.5268 14.1957 21.9839 14.407 22.3411 14.757C22.7576 15.165 22.9869 15.7093 22.9869 16.2896C22.9869 16.896 22.7272 17.4775 22.2743 17.8848C21.872 18.2469 21.3441 18.4432 20.8076 18.4427C20.0428 21.2736 17.4801 23.2326 14.5017 23.2326ZM8.3928 17.9189C8.51051 17.9189 8.61476 17.9997 8.64219 18.1167C9.2801 20.8269 11.6896 22.7197 14.5015 22.7197C17.3134 22.7197 19.723 20.8268 20.3609 18.1167C20.3905 17.991 20.5088 17.9065 20.6375 17.9204C21.1097 17.9705 21.5812 17.8184 21.9311 17.5035C22.276 17.1932 22.4737 16.7507 22.4737 16.2895C22.4737 15.8482 22.2991 15.4339 21.982 15.1232C21.6617 14.8093 21.2361 14.6407 20.7813 14.6508C20.6486 14.6575 20.5196 14.5449 20.5196 14.3944V13.807C20.5196 10.5197 17.8198 7.84522 14.5013 7.84522C11.1828 7.84522 8.48333 10.5197 8.48333 13.807V14.3945C8.48333 14.5449 8.35472 14.6571 8.22163 14.651C7.77016 14.6403 7.34139 14.8094 7.02109 15.1232C6.704 15.434 6.52936 15.8482 6.52936 16.2896C6.52936 16.7509 6.72721 17.1933 7.07225 17.5038C7.42204 17.8186 7.89377 17.9705 8.36562 17.9205C8.37472 17.9193 8.38383 17.9189 8.3928 17.9189Z" fill="black" fill-opacity="0.85"/>
</g>
</g>
<g id="Group_44">
<g id="Group_45">
<path id="Vector_22" d="M22.9149 6.79059L15.3239 4.38451C14.7886 4.21487 14.214 4.21487 13.6787 4.38438L6.08479 6.79059C5.59152 6.94689 5.25635 7.40477 5.25635 7.92214C5.25635 8.28488 5.42214 8.62761 5.70653 8.8529L7.13441 9.98343L7.13415 11.5152L8.31097 12.532C8.99875 13.1263 9.87732 13.4532 10.7863 13.4532H14.5014H18.2165C19.1254 13.4532 20.004 13.1263 20.6918 12.532L21.8686 11.5152L21.8683 9.98343H21.8654L23.2933 8.8529C23.5777 8.62774 23.7435 8.28488 23.7435 7.92214C23.7433 7.40477 23.4082 6.94689 22.9149 6.79059Z" fill="#273B4A"/>
</g>
</g>
<g id="Group_46">
<g id="Group_47">
<path id="Vector_23" d="M21.8687 9.98352H7.13428V11.5153H21.8687V9.98352Z" fill="#A4C9FF"/>
</g>
</g>
<g id="Group_48">
<g id="Group_49">
<path id="Vector_24" d="M18.2164 13.7096H10.7864C9.81613 13.7096 8.87755 13.3603 8.14335 12.726L6.96653 11.7092C6.91012 11.6605 6.8778 11.5897 6.8778 11.5151L6.87806 10.1075L5.54751 9.054C5.19964 8.77845 5 8.36596 5 7.92219C5 7.29005 5.4048 6.73703 6.00744 6.54611L13.6014 4.13991C14.1902 3.95334 14.8127 3.95334 15.4016 4.14003L22.9926 6.54611C23.5952 6.73703 24 7.29005 24 7.92219C24 8.36583 23.8005 8.77845 23.4525 9.054L22.1249 10.1052L22.1251 11.5152C22.1251 11.5898 22.0928 11.6606 22.0364 11.7093L20.8595 12.7261C20.1254 13.3602 19.1868 13.7096 18.2164 13.7096ZM7.39069 11.3978L8.47878 12.3379C9.11976 12.8917 9.93935 13.1967 10.7865 13.1967H18.2166C19.0637 13.1967 19.8833 12.8917 20.5243 12.3379L21.6123 11.3978L21.612 10.0123C21.6017 9.92565 21.6359 9.83807 21.7062 9.7823L23.1341 8.65177C23.3585 8.47405 23.4871 8.20812 23.4871 7.92206C23.4871 7.51457 23.2261 7.15811 22.8377 7.03502L15.2466 4.62907C14.7592 4.47444 14.2439 4.47444 13.7563 4.62894L6.16233 7.03515C5.77395 7.15824 5.51289 7.5147 5.51289 7.92219C5.51289 8.20825 5.64149 8.47418 5.86588 8.65189L7.29376 9.78242C7.35517 9.83102 7.39095 9.90513 7.39095 9.98348L7.39069 11.3978Z" fill="black" fill-opacity="0.85"/>
</g>
</g>
<g id="Group_50">
<g id="Group_51">
<path id="Vector_25" d="M21.8688 11.7716H7.13437C6.99282 11.7716 6.87793 11.6567 6.87793 11.5152V9.98343C6.87793 9.84188 6.99282 9.72699 7.13437 9.72699H21.8688C22.0104 9.72699 22.1253 9.84188 22.1253 9.98343V11.5152C22.1253 11.6567 22.0104 11.7716 21.8688 11.7716ZM7.39082 11.2587H21.6124V10.2399H7.39082V11.2587Z" fill="black" fill-opacity="0.85"/>
</g>
</g>
<g id="Group_52">
<g id="Group_53">
<path id="Vector_26" d="M14.5013 25.1548L13.2319 26.4769L13.6828 28.0316C14.2744 28.0316 14.7264 28.0316 15.32 28.0316L15.7708 26.4769L14.5013 25.1548Z" fill="#1A1A1A"/>
</g>
</g>
<g id="Group_54">
<g id="Group_55">
<path id="Vector_27" d="M14.5012 33.5365C14.4041 33.5365 14.3151 33.4814 14.2717 33.3945L12.8892 30.6217C12.8628 30.5686 12.8555 30.5081 12.8687 30.4503L13.4325 27.9748C13.4592 27.8582 13.5629 27.7753 13.6826 27.7753H15.3198C15.4396 27.7753 15.5433 27.8582 15.5698 27.9748L16.1338 30.4503C16.147 30.5081 16.1397 30.5686 16.1132 30.6217L14.7308 33.3945C14.6873 33.4814 14.5984 33.5365 14.5012 33.5365ZM13.3892 30.4748L14.5012 32.7053L15.6133 30.4748L15.1152 28.2882H13.8872L13.3892 30.4748Z" fill="black" fill-opacity="0.85"/>
</g>
</g>
<g id="Group_56">
<g id="Group_57">
<path id="Vector_28" d="M15.3201 28.2882H13.6829C13.5688 28.2882 13.4684 28.2128 13.4366 28.1031L12.9857 26.5484C12.9602 26.4604 12.9836 26.3655 13.047 26.2994L14.3164 24.9773C14.4132 24.8767 14.5897 24.8767 14.6865 24.9773L15.9559 26.2994C16.0193 26.3656 16.0427 26.4605 16.0172 26.5484L15.5663 28.1031C15.5347 28.2128 15.4343 28.2882 15.3201 28.2882ZM13.8756 27.7753H15.1276L15.4835 26.5478L14.5016 25.5251L13.5198 26.5478L13.8756 27.7753Z" fill="black" fill-opacity="0.85"/>
</g>
</g>
<g id="Group_58">
<g id="Group_59">
<path id="Vector_29" d="M14.5015 33.5364C14.3844 33.5364 14.5654 33.6186 11.2903 31.6332C11.2251 31.5937 11.1809 31.5273 11.1696 31.4519C11.1583 31.3766 11.1812 31.3001 11.2318 31.2433L11.5268 30.9122H10.5049C10.3975 30.9122 10.3014 30.8453 10.2642 30.7443L8.00947 24.6214C7.98049 24.5428 7.99177 24.4548 8.03973 24.3861C8.08768 24.3174 8.16628 24.2763 8.25014 24.2763H10.1405C10.2377 24.2763 10.3267 24.3313 10.37 24.4183L14.7312 33.1654C14.8161 33.3362 14.6913 33.5364 14.5015 33.5364ZM11.8197 31.3544L13.8766 32.6014L9.98164 24.7892H8.61775L10.6837 30.3993H12.0987C12.1997 30.3993 12.2913 30.4587 12.3327 30.5509C12.374 30.643 12.3573 30.751 12.2901 30.8264L11.8197 31.3544Z" fill="black" fill-opacity="0.85"/>
</g>
</g>
<g id="Group_60">
<g id="Group_61">
<path id="Vector_30" d="M14.5015 33.5364C14.3116 33.5364 14.1868 33.3362 14.2718 33.1654L18.633 24.4183C18.6764 24.3312 18.7653 24.2763 18.8625 24.2763H20.7529C20.9311 24.2763 21.0551 24.4541 20.9936 24.6214L18.7388 30.7443C18.7016 30.8453 18.6056 30.9122 18.4981 30.9122H17.4763L17.7714 31.2433C17.822 31.3001 17.8448 31.3766 17.8336 31.4519C17.8223 31.5271 17.778 31.5936 17.7129 31.6332C14.4377 33.6184 14.6185 33.5364 14.5015 33.5364ZM19.0214 24.7892L15.1264 32.6012L17.1833 31.3543L16.7129 30.8263C16.6457 30.7509 16.629 30.6429 16.6703 30.5507C16.7117 30.4585 16.8033 30.3992 16.9043 30.3992H18.3194L20.3854 24.7891H19.0214V24.7892Z" fill="black" fill-opacity="0.85"/>
</g>
</g>
</g>
</g>
</g>
</g>
</svg>
