<svg width="48" height="57" viewBox="0 0 48 57" fill="none" xmlns="http://www.w3.org/2000/svg">
<path fill-rule="evenodd" clip-rule="evenodd" d="M8.85729 31.3777L9.11311 27.3239C9.33437 23.8088 13.209 21.1675 17.8058 21.1675C18.2964 21.1675 18.6956 20.7687 18.6956 20.2777C18.6956 19.7867 18.2964 19.3879 17.8058 19.3879C12.1654 19.3879 7.60907 22.899 7.33654 27.2119L7.08151 31.2657C7.05053 31.7555 7.42314 32.1786 7.91373 32.2095C8.40352 32.2405 8.82658 31.8679 8.85756 31.3777L8.85729 31.3777ZM30.286 21.1677C34.8828 21.1677 38.7575 23.8086 38.9787 27.3241L39.2345 31.3779C39.2655 31.8677 39.6882 32.2403 40.1784 32.2097C40.6689 32.1787 41.0416 31.756 41.0106 31.2659L40.7555 27.2121C40.4834 22.8993 35.9264 19.388 30.2863 19.388C29.7957 19.388 29.3965 19.7869 29.3965 20.2778C29.3965 20.7688 29.7957 21.1677 30.2863 21.1677L30.286 21.1677Z" fill="#393C59"/>
<path fill-rule="evenodd" clip-rule="evenodd" d="M41.3429 53.7297H6.74803C6.25705 53.7297 5.85822 54.1285 5.85822 54.6195C5.85822 55.1104 6.25705 55.5093 6.74803 55.5093H41.3429C41.8339 55.5093 42.2327 55.1104 42.2327 54.6195C42.2327 54.1285 41.8339 53.7297 41.3429 53.7297ZM4.27792 45.3602V39.932C4.27792 33.5762 9.49171 30.1055 15.8465 30.1055C17.2511 30.1055 18.7166 29.6391 20.2062 29.1708C22.766 30.89 25.3262 30.89 27.886 29.1708C29.376 29.6395 30.8407 30.1055 32.2457 30.1055C38.6007 30.1055 43.8143 33.5762 43.8143 39.932V45.3602C43.8143 45.8512 44.2131 46.25 44.7041 46.25C45.1951 46.25 45.5939 45.8512 45.5939 45.3602V39.932C45.5939 32.5259 39.6516 28.3258 32.2457 28.3258C30.8772 28.3258 29.4527 27.7931 27.9973 27.3406C27.7267 27.2564 27.4332 27.3061 27.2052 27.4741C25.0994 29.0265 22.9932 29.0265 20.8875 27.4741C20.6599 27.3061 20.3659 27.2564 20.0954 27.3406C18.6396 27.7931 17.2155 28.3258 15.847 28.3258C8.44089 28.3258 2.49878 32.5258 2.49878 39.932V45.3602C2.49878 45.8512 2.89761 46.25 3.38859 46.25C3.87957 46.25 4.2784 45.8512 4.2784 45.3602H4.27792Z" fill="#393C59"/>
<path fill-rule="evenodd" clip-rule="evenodd" d="M17.8398 51.5738L15.9541 49.6881C15.6065 49.3409 15.0428 49.3409 14.6952 49.6881C14.348 50.0353 14.348 50.5994 14.6952 50.9461L16.5809 52.8326C16.9285 53.1798 17.4922 53.1798 17.8398 52.8326C18.1869 52.4851 18.1869 51.9214 17.8398 51.5738ZM34.2062 47.6201L30.2525 51.5738C29.9053 51.9214 29.9053 52.485 30.2525 52.8326C30.6001 53.1798 31.1637 53.1798 31.5113 52.8326L35.4651 48.8789C35.8122 48.5313 35.8122 47.9677 35.4651 47.6201C35.1175 47.2729 34.5538 47.2729 34.2062 47.6201ZM28.532 50.8953L32.9584 46.4689C33.3056 46.1217 33.3056 45.5576 32.9584 45.2109C32.6108 44.8633 32.0472 44.8633 31.6996 45.2109L27.2732 49.6368C26.926 49.9844 26.926 50.5481 27.2732 50.8957C27.6208 51.2429 28.1844 51.2429 28.532 50.8957V50.8953ZM15.134 46.4689L19.5604 50.8953C19.908 51.2425 20.4717 51.2425 20.8193 50.8953C21.1664 50.5477 21.1664 49.984 20.8193 49.6364L16.3929 45.2105C16.0453 44.8629 15.4816 44.8629 15.134 45.2105C14.7868 45.5576 14.7868 46.1217 15.134 46.4685V46.4689Z" fill="#393C59"/>
<path fill-rule="evenodd" clip-rule="evenodd" d="M26.5254 22.8151C26.5366 24.6821 26.6494 26.554 26.848 28.2911C26.9044 28.7793 27.3457 29.1301 27.8332 29.074C28.3214 29.0176 28.6721 28.5763 28.6161 28.0889C28.4238 26.413 28.3154 24.6055 28.3047 22.8044C28.3019 22.3134 27.9007 21.917 27.4097 21.9198C26.9187 21.9226 26.5223 22.3238 26.525 22.8148L26.5254 22.8151ZM21.2434 28.2911C21.3133 27.6758 21.3733 27.0441 21.4214 26.401C21.4583 25.9112 21.0905 25.4838 20.6003 25.4473C20.1109 25.4103 19.6831 25.7782 19.6465 26.2684C19.6004 26.8876 19.5429 27.4962 19.4749 28.0889C19.4193 28.5767 19.7697 29.018 20.2579 29.074C20.7457 29.1296 21.187 28.7793 21.243 28.2911L21.2434 28.2911Z" fill="#393C59"/>
<path fill-rule="evenodd" clip-rule="evenodd" d="M31.9131 28.5281C31.9131 28.5281 29.4164 30.5711 27.6877 31.9853C27.4859 32.1501 27.2225 32.2185 26.9663 32.172C26.7101 32.1259 26.4864 31.9698 26.3553 31.7441C25.6375 30.5119 24.8149 29.1009 24.8149 29.1009C24.5674 28.6763 24.0224 28.5325 23.5981 28.78C23.1735 29.0275 23.0297 29.5725 23.2772 29.9967C23.2772 29.9967 24.0998 31.4085 24.8176 32.6408C25.2117 33.3157 25.8806 33.7844 26.6501 33.9234C27.4188 34.062 28.2097 33.8575 28.8146 33.3629C30.5426 31.9488 33.0397 29.9058 33.0397 29.9058C33.4198 29.5947 33.4762 29.0338 33.1648 28.6537C32.8538 28.274 32.2929 28.2175 31.9131 28.5286L31.9131 28.5281Z" fill="#393C59"/>
<path fill-rule="evenodd" clip-rule="evenodd" d="M23.2774 29.1008C23.2774 29.1008 22.4547 30.5122 21.7369 31.744C21.6059 31.9693 21.3822 32.1254 21.126 32.1718C20.8698 32.2179 20.6064 32.15 20.4046 31.9852L16.1792 28.528C15.7994 28.217 15.2385 28.2734 14.9274 28.6531C14.616 29.0333 14.6724 29.5946 15.0526 29.9052C15.0526 29.9052 17.5492 31.9482 19.2776 33.3623C19.8826 33.8569 20.6735 34.0619 21.4421 33.9228C22.2116 33.7842 22.8806 33.3154 23.2746 32.6402C23.9924 31.408 24.8151 29.9962 24.8151 29.9962C25.0626 29.5719 24.9188 29.0269 24.4941 28.7794C24.0699 28.5319 23.5249 28.6757 23.2774 29.1004L23.2774 29.1008Z" fill="#393C59"/>
<path fill-rule="evenodd" clip-rule="evenodd" d="M30.5453 10.1117V16.2029C30.5453 17.9261 29.8609 19.5794 28.6417 20.7985C27.9772 21.4631 26.6437 22.2671 25.5357 22.8911C25.5258 22.8963 25.5155 22.9023 25.5059 22.9082C24.6042 23.4628 23.4665 23.4616 22.566 22.9046C22.5565 22.8987 22.5465 22.8927 22.5362 22.8868C21.4351 22.2639 20.1123 21.4614 19.4493 20.7981C18.2302 19.579 17.5457 17.9257 17.5457 16.2025V13.4032C17.5457 12.9122 17.1469 12.5134 16.6559 12.5134C16.1649 12.5134 15.7661 12.9122 15.7661 13.4032V16.2025C15.7661 18.3981 16.638 20.5038 18.1905 22.0561C18.9361 22.8018 20.4063 23.7253 21.6453 24.4272C23.1123 25.327 24.9603 25.3278 26.4284 24.4296C27.6702 23.7301 29.1522 22.8037 29.9003 22.0561C31.4527 20.5036 32.3247 18.3979 32.3247 16.2024V10.1112C32.3247 9.62026 31.9258 9.22144 31.4348 9.22144C30.9439 9.22144 30.545 9.62026 30.545 10.1112L30.5453 10.1117Z" fill="#393C59"/>
<path fill-rule="evenodd" clip-rule="evenodd" d="M15.7786 6.99981L13.8139 9.36499C13.4902 9.75428 13.4497 10.3056 13.7126 10.7391C13.9756 11.1717 14.4844 11.3897 14.979 11.2817C21.0325 9.99862 27.0916 10.1618 33.1505 11.3103C33.6423 11.4052 34.1424 11.178 34.3962 10.743C34.6501 10.3089 34.6028 9.76146 34.2771 9.3773L32.3051 7.065L32.292 6.9216C32.1967 4.3749 30.595 2.11783 28.2124 1.18348C25.1045 -0.1187 22.9959 -0.140564 19.8756 1.14375C17.4807 2.08164 15.8715 4.35308 15.7813 6.92397L15.7786 6.99981ZM31.8512 9.27641C26.6482 8.43983 21.4439 8.33694 16.2403 9.22834L17.3018 7.95047L17.2982 7.95405C17.4321 7.82574 17.5365 7.63784 17.5461 7.36137L17.5592 6.98598C17.6251 5.12216 18.7926 3.47595 20.5301 2.79868C20.5349 2.79709 20.5401 2.79471 20.5456 2.79232C23.1622 1.71387 24.9284 1.73563 27.5382 2.83086C27.5454 2.83364 27.5517 2.83681 27.5589 2.8392C29.2889 3.51529 30.4508 5.15627 30.5143 7.01298L30.5441 7.38678C30.556 7.58858 30.6378 7.85353 30.8468 8.09863L31.8518 9.27684L31.8512 9.27641Z" fill="#393C59"/>
<path fill-rule="evenodd" clip-rule="evenodd" d="M31.673 6.39695C27.7562 5.30975 23.8386 5.04637 19.9213 5.63544C19.4359 5.70853 19.101 6.16179 19.1737 6.6476C19.2468 7.13302 19.7001 7.4679 20.1859 7.39521C23.8568 6.84424 27.5269 7.0933 31.1982 8.11222C31.6717 8.24332 32.1623 7.96564 32.2937 7.49213C32.4248 7.01942 32.1472 6.52803 31.6737 6.3969L31.673 6.39695Z" fill="#393C59"/>
<path fill-rule="evenodd" clip-rule="evenodd" d="M21.7325 20.4162C23.2706 21.2147 24.8096 21.1916 26.3477 20.4222C26.7874 20.2021 26.9654 19.6674 26.7457 19.2281C26.5256 18.7892 25.9905 18.6104 25.5516 18.8305C24.5522 19.3306 23.5519 19.3556 22.5525 18.8364C22.1163 18.6104 21.5789 18.78 21.3528 19.2162C21.1264 19.6524 21.2964 20.1898 21.7325 20.4162Z" fill="#393C59"/>
<path fill-rule="evenodd" clip-rule="evenodd" d="M38.5974 54.4702C37.4096 47.5094 31.343 42.204 24.0461 42.204C16.7493 42.204 10.6827 47.5095 9.49491 54.4702C9.41228 54.9544 9.7388 55.4144 10.2226 55.497C10.7069 55.5797 11.1665 55.2539 11.2495 54.7697C12.2935 48.6483 17.6295 43.9832 24.0466 43.9832C30.4636 43.9832 35.7992 48.6483 36.8436 54.7697C36.9266 55.2539 37.3862 55.5793 37.8705 55.497C38.3547 55.4144 38.6809 54.9544 38.5982 54.4702H38.5974ZM17.4269 41.9497C19.4521 41.0548 21.6917 40.5575 24.0461 40.5575C29.6757 40.5575 34.6456 43.3989 37.6018 47.7241C37.8787 48.1296 38.4336 48.2341 38.8388 47.9572C39.2444 47.6796 39.3484 47.1254 39.0712 46.7202C35.7947 41.9263 30.2851 38.7778 24.0461 38.7778C21.4354 38.7778 18.9527 39.3296 16.7075 40.3219C16.2586 40.5202 16.0548 41.0461 16.2538 41.4954C16.4525 41.9443 16.978 42.148 17.4273 41.9498L17.4269 41.9497ZM10.49 47.724C11.5867 46.1195 12.9608 44.7188 14.5433 43.5915C14.9434 43.3066 15.0367 42.7501 14.7523 42.3505C14.4671 41.9505 13.9109 41.8571 13.5113 42.1416C11.7584 43.39 10.2357 44.9421 9.02058 46.7201C8.7437 47.1253 8.84739 47.6794 9.25297 47.9571C9.65815 48.2339 10.2127 48.1299 10.49 47.724Z" fill="#393C59"/>
<path fill-rule="evenodd" clip-rule="evenodd" d="M40.1339 42.6412C39.1663 43.0185 38.3627 43.5731 37.8784 44.4737C37.2325 45.6749 37.1439 47.6328 38.4544 50.9907C39.202 52.9054 39.8753 54.1663 40.4926 54.9782C41.2601 55.9872 42.0001 56.3912 42.6988 56.5163C43.5613 56.6712 44.4181 56.3566 45.3464 55.9944C46.3435 55.6051 47.0863 54.7268 47.472 53.5081C47.9638 51.9521 47.8665 49.7975 47.0259 47.6449C46.1858 45.4914 44.7978 43.8413 43.3816 43.0297C42.2722 42.395 41.1309 42.252 40.1338 42.6412L40.1339 42.6412ZM40.781 44.2984C41.311 44.0919 41.9076 44.2369 42.4971 44.5741C43.6284 45.222 44.6966 46.5715 45.3683 48.2911C46.0396 50.0115 46.1679 51.728 45.7747 52.971C45.5701 53.6189 45.2289 54.129 44.6994 54.3359C44.1007 54.5695 43.5701 54.8646 43.0139 54.7649C42.6493 54.699 42.3092 54.4261 41.9088 53.9002C41.3594 53.1776 40.7775 52.0474 40.1125 50.3432C39.0964 47.7409 38.9451 46.2474 39.4456 45.3162C39.7248 44.7954 40.2222 44.5165 40.7807 44.298L40.781 44.2984Z" fill="#393C59"/>
<path fill-rule="evenodd" clip-rule="evenodd" d="M7.95838 42.6412C6.96132 42.252 5.82009 42.395 4.71052 43.0297C3.29434 43.8413 1.90644 45.4914 1.06625 47.6449C0.225701 49.7975 0.12837 51.9521 0.620157 53.5081C1.00588 54.7263 1.74834 55.6051 2.74574 55.9944C3.67409 56.3566 4.53055 56.6712 5.39331 56.5163C6.09205 56.3912 6.83176 55.9872 7.59954 54.9782C8.21724 54.1663 8.89012 52.9054 9.63777 50.9907C10.9483 47.6333 10.8597 45.675 10.2138 44.4737C9.72954 43.5731 8.92593 43.0185 7.95822 42.6412L7.95838 42.6412ZM7.31128 44.2985C7.8702 44.517 8.36716 44.7955 8.64641 45.3167C9.14693 46.2474 8.99598 47.741 7.97944 50.3438C7.31446 52.0479 6.73249 53.178 6.18314 53.9007C5.78273 54.427 5.4427 54.6999 5.07805 54.7655C4.52232 54.8652 3.99115 54.5704 3.39259 54.3364C2.86268 54.1295 2.52184 53.6194 2.31729 52.9715C1.92402 51.7285 2.05193 50.0121 2.72366 48.2916C3.395 46.572 4.46353 45.2221 5.59486 44.5746C6.18436 44.237 6.78141 44.0924 7.31093 44.299L7.31128 44.2985Z" fill="#393C59"/>
<path fill-rule="evenodd" clip-rule="evenodd" d="M16.1021 55.0537C17.6565 52.2686 20.6326 50.3825 24.0464 50.3825C27.4603 50.3825 30.4364 52.2682 31.9908 55.0537C32.2303 55.4827 32.7726 55.6368 33.2015 55.3973C33.6306 55.1581 33.7839 54.6155 33.5452 54.1865C31.6872 50.8569 28.128 48.6034 24.0468 48.6034C19.9656 48.6034 16.4064 50.8569 14.5485 54.1865C14.3094 54.6156 14.4631 55.1582 14.8921 55.3973C15.3212 55.6368 15.8634 55.4827 16.1029 55.0537H16.1021Z" fill="#393C59"/>
</svg>
