<svg width="29" height="33" viewBox="0 0 29 33" fill="none" xmlns="http://www.w3.org/2000/svg">
<g id="Group">
<path id="Vector" d="M22.3721 15.54C22.3366 13.9044 21.3055 13.2289 20.381 12.98C20.0255 12.8733 19.5277 12.8378 19.0299 13.0156V10.3133V1.53111C19.0299 0.962222 18.5677 0.5 17.9988 0.5H3.42101C2.85212 0.5 2.38989 0.962222 2.38989 1.53111V30.0822H1.07434C0.861005 30.0822 0.683228 30.26 0.683228 30.4733V32.1089C0.683228 32.3222 0.861005 32.5 1.07434 32.5H20.3099C20.5232 32.5 20.701 32.3222 20.701 32.1089V30.4733C20.701 30.26 20.5232 30.0822 20.3099 30.0822H18.9943V15.8956C18.9943 15.6822 19.0654 15.5044 19.2077 15.3622C19.2432 15.3267 19.2788 15.2911 19.3143 15.2556C19.421 15.1844 19.5632 15.1489 19.7055 15.1489C20.061 15.1489 20.381 15.4333 20.4166 15.7533C20.4166 15.7533 20.4166 15.9667 20.4166 16.18V21.3356V25.5311C20.4166 27.5933 22.0877 29.2644 24.1499 29.2644C26.2121 29.2644 27.8832 27.5933 27.8832 25.5311L27.4921 13.5133C27.4921 12.4467 27.421 12.0911 28.061 11.5933C28.5232 11.2733 28.2388 10.3489 28.1321 9.95778C27.9899 9.28222 27.7055 8.18 27.3855 7.57556C25.6077 3.77111 21.5899 2.20667 21.5899 2.20667C21.5543 2.17111 21.4832 2.17111 21.4477 2.13556C21.2699 2.06444 21.1632 2.06444 21.0921 2.1C20.9855 2.1 20.8788 2.20667 20.8788 2.34889V2.77556C20.8788 2.88222 20.9854 2.98889 20.9854 2.98889C21.1988 3.20222 21.981 3.84222 22.2299 4.12667C22.8343 4.76667 23.4032 5.40667 23.7232 5.90444C23.8655 6.11778 24.0077 6.33111 24.1143 6.54444C25.3232 8.78444 25.6077 12.1978 25.6077 12.1978L25.6432 13.1222L26.0343 25.0333V25.5667C26.0343 26.5622 25.2166 27.38 24.221 27.38C23.2255 27.38 22.3721 26.5622 22.3721 25.5667M16.8966 11.6644C16.8966 12.1622 16.5055 12.5889 15.9721 12.5889H5.34101C4.84323 12.5889 4.41656 12.1978 4.41656 11.6644V3.38C4.41656 2.88222 4.80767 2.45556 5.34101 2.45556H15.9721C16.4699 2.45556 16.8966 2.84667 16.8966 3.38V11.6644Z" fill="black"/>
</g>
</svg>
