<svg width="31" height="33" viewBox="0 0 31 33" fill="none" xmlns="http://www.w3.org/2000/svg">
<g id="Group">
<path id="Vector" d="M24.4444 22.9813C24.4088 22.8388 24.4088 22.625 24.4088 22.3755L24.0881 16.2107C24.0881 15.1417 23.6961 14.2152 22.9834 13.5737C22.1281 12.7898 20.9878 12.5403 20.1682 12.4691V2.31316C20.1682 1.24412 19.313 0.388885 18.244 0.388885H5.41545C4.3464 0.388885 3.49117 1.24412 3.49117 2.31316V30.4646H1.63816C1.10364 30.4646 0.676025 30.8922 0.676025 31.4267C0.676025 31.9613 1.10364 32.3889 1.63816 32.3889H5.41545H18.244H22.0212C22.5558 32.3889 22.9834 31.9613 22.9834 31.4267C22.9834 30.8922 22.5558 30.4646 22.0212 30.4646H20.1682V14.3577C20.7028 14.429 21.3085 14.6071 21.7005 14.9635C22.0212 15.2486 22.1638 15.6406 22.1638 16.2107V16.2463L22.4845 22.8388C22.5201 23.0882 22.5558 23.4089 22.5558 23.4802C22.8765 25.2976 24.48 26.6873 26.4043 26.6873C28.578 26.6873 30.3241 24.9412 30.3241 22.7675C30.3241 22.7319 30.3241 22.7319 30.3241 22.6962L29.4689 10.8655C29.3976 10.0103 29.1838 8.26416 29.6471 7.87218C30.3954 7.23076 29.0769 4.87886 29.0769 4.87886C27.6872 1.84991 24.48 0.602694 24.48 0.602694L24.3375 0.567059C24.2662 0.531424 24.2306 0.531424 24.1593 0.531424C24.1237 0.531424 24.1237 0.531424 24.1237 0.531424C24.0881 0.531424 24.0524 0.531424 24.0168 0.567059C23.9811 0.567059 23.9811 0.602694 23.9455 0.602694C23.8742 0.638329 23.803 0.745233 23.803 0.887772C23.803 1.17285 24.0168 1.24412 24.0168 1.24412C24.8007 1.67174 25.4778 2.4557 25.9054 3.06149C26.0836 3.31093 26.2261 3.56038 26.3687 3.77419C26.3687 3.80982 26.4043 3.80982 26.4043 3.80982C26.4399 3.88109 26.4756 3.95236 26.5112 4.02363C26.5112 4.05926 26.5468 4.0949 26.5468 4.13053C26.7607 4.59378 26.8676 4.87886 26.8676 4.87886C27.5446 6.69623 27.6872 8.54924 27.6872 8.54924V8.65615L28.4355 22.8031C28.4355 23.8722 27.5446 24.763 26.4399 24.763C25.4778 24.763 24.6938 24.086 24.48 23.1951M5.41545 2.31316H18.244V12.3978H5.41545V2.31316ZM5.41545 30.4646V14.3221H18.244V30.4646H5.41545Z" fill="#273B4A"/>
</g>
</svg>
