<svg width="61" height="61" viewBox="0 0 61 61" fill="none" xmlns="http://www.w3.org/2000/svg">
<path d="M60.5003 15.1221C60.4994 11.2864 59.0414 7.59427 56.4214 4.79293C53.8011 1.99205 50.2148 0.291006 46.3876 0.0339077C42.5604 -0.222683 38.7787 0.984179 35.8081 3.41052C32.8371 5.83642 30.8991 9.30073 30.386 13.1019C29.8728 16.9029 30.8231 20.7572 33.0445 23.8843C35.2655 27.0111 38.5918 29.1777 42.3501 29.9447V36.2973H32.2667C32.2667 36.0299 32.1604 35.7733 31.9714 35.5842C31.7823 35.3952 31.5257 35.2889 31.2583 35.2889H21.1749V33.0103C23.0674 31.69 24.1968 29.5298 24.2 27.2222H25.2083C26.0289 27.2254 26.8153 26.8936 27.3857 26.3035C27.9561 25.7138 28.2613 24.917 28.2311 24.0969C28.201 23.2771 27.8377 22.5047 27.225 21.9586V17.1388C27.2228 15.2676 26.4787 13.4732 25.1552 12.1503C23.8323 10.8269 22.0379 10.0828 20.1666 10.0805H19.1583C18.272 10.0805 17.4018 10.3145 16.6348 10.7588C15.8682 11.2031 15.2326 11.8424 14.7924 12.6112C14.2945 12.2763 13.7084 12.0976 13.1084 12.0971H12.1C10.763 12.0971 9.48066 12.6283 8.53477 13.5736C7.58946 14.5193 7.05833 15.8018 7.05833 17.1388V21.9586C6.44568 22.5046 6.0824 23.277 6.05224 24.0968C6.02208 24.917 6.32728 25.7138 6.89762 26.3034C7.46796 26.8936 8.25433 27.2253 9.07506 27.2222H10.0834C10.0866 29.5296 11.216 31.69 13.1084 33.0103V35.2889H9.07506C6.66945 35.2925 4.36329 36.25 2.66225 37.9512C0.961092 39.6523 0.00368764 41.9584 0 44.364V49.4057C0 49.6731 0.106236 49.9297 0.2953 50.1187C0.484363 50.3078 0.740951 50.414 1.00834 50.414V59.4891C1.00834 59.7565 1.11458 60.0131 1.30364 60.2021C1.4927 60.3912 1.74929 60.4974 2.01668 60.4974H26.2168C26.4842 60.4974 26.7408 60.3912 26.9299 60.2021C27.1189 60.0131 27.2252 59.7565 27.2252 59.4891V45.3723H31.2585C31.5259 45.3723 31.7825 45.2661 31.9716 45.077C32.1606 44.888 32.2669 44.6314 32.2669 44.364H42.3503V49.4057C42.3503 49.6731 42.4565 49.9297 42.6456 50.1187C42.8346 50.3078 43.0912 50.414 43.3586 50.414H47.392C47.6594 50.414 47.916 50.3078 48.105 50.1187C48.2941 49.9297 48.4003 49.6731 48.4003 49.4057V44.1826C48.9878 43.9733 49.4969 43.5879 49.8575 43.0793C50.2185 42.5701 50.4139 41.9629 50.4171 41.3389V39.3223C50.4139 38.6983 50.2185 38.091 49.8575 37.5819C49.497 37.0732 48.9878 36.6879 48.4003 36.4786V29.9447C51.8138 29.2415 54.8807 27.3833 57.0842 24.6838C59.2881 21.9837 60.4944 18.6073 60.5003 15.1221ZM26.2168 24.1972C26.2168 24.4646 26.1105 24.7212 25.9215 24.9102C25.7324 25.0993 25.4758 25.2055 25.2084 25.2055H24.2001V23.1889H25.2084C25.4758 23.1889 25.7324 23.2951 25.9215 23.4842C26.1105 23.6732 26.2168 23.9298 26.2168 24.1972ZM10.0833 25.2055H9.07497C8.51814 25.2055 8.06663 24.754 8.06663 24.1972C8.06663 23.6404 8.51814 23.1889 9.07497 23.1889H10.0833V25.2055ZM10.0833 21.1722H9.07497V17.1388C9.07722 16.3371 9.39683 15.5691 9.96356 15.0024C10.5303 14.4357 11.2983 14.1161 12.1 14.1138H13.1083C13.3757 14.1138 13.6323 14.22 13.8214 14.4091C14.0104 14.5982 14.1167 14.8548 14.1167 15.1221C14.1167 15.679 14.5682 16.1305 15.125 16.1305C15.6818 16.1305 16.1333 15.679 16.1333 15.1221C16.1356 14.3204 16.4552 13.5525 17.0219 12.9857C17.5887 12.419 18.3566 12.0994 19.1583 12.0971H20.1667C21.5037 12.0971 22.7861 12.6283 23.7319 13.5736C24.6773 14.5193 25.2084 15.8018 25.2084 17.1388V21.1722H24.2C24.1978 20.3705 23.8782 19.6025 23.3115 19.0358C22.7447 18.469 21.9768 18.1494 21.175 18.1472H13.1083C12.3066 18.1494 11.5387 18.4691 10.9719 19.0358C10.4052 19.6025 10.0856 20.3705 10.0833 21.1722ZM12.1 27.2222V21.1722C12.1 20.6153 12.5515 20.1638 13.1083 20.1638H21.1751C21.4424 20.1638 21.699 20.2701 21.8881 20.4591C22.0772 20.6482 22.1834 20.9048 22.1834 21.1722V27.2222C22.1834 29.0233 21.2223 30.6879 19.6625 31.5883C18.1028 32.489 16.1806 32.489 14.6208 31.5883C13.0611 30.688 12.1 29.0233 12.1 27.2222ZM20.6709 37.3056H21.1751V40.1087L18.9062 39.6549L20.6709 37.3056ZM17.1417 38.6467L15.125 35.9647V33.9881C16.4413 34.378 17.8421 34.378 19.1584 33.9881V35.9642L17.1417 38.6467ZM13.1083 37.3056H13.6125L15.377 39.655L13.1082 40.1087L13.1083 37.3056ZM7.05829 58.4808H3.02493V50.414H7.05829V58.4808ZM30.2501 43.3557H24.2001C23.6432 43.3557 23.1917 43.8072 23.1917 44.364C23.1917 44.9208 23.6432 45.3723 24.2001 45.3723H25.2084V58.4808H9.07497V45.3723C9.07497 44.8155 8.62346 44.364 8.06663 44.364C7.50979 44.364 7.05829 44.8155 7.05829 45.3723V48.3974H2.01659V44.364C2.01884 42.4927 2.76294 40.6984 4.08639 39.3754C5.40934 38.052 7.20372 37.3079 9.07497 37.3056H11.0916V41.339C11.0989 41.8931 11.5459 42.3401 12.1 42.3473C12.1675 42.3455 12.235 42.3388 12.3017 42.3271L17.1417 41.3592L21.9817 42.3271C22.0483 42.3388 22.1159 42.3455 22.1834 42.3473C22.7375 42.3401 23.1845 41.8931 23.1917 41.339V37.3056H30.2501V43.3557ZM42.3502 42.3473H32.2668V38.314H42.3502V42.3473ZM46.3836 48.3974H44.3669V43.8095C44.9777 44.1705 45.6741 44.3618 46.3836 44.3641V48.3974ZM48.4002 41.339C48.4002 41.6064 48.294 41.863 48.1049 42.052C47.9159 42.2411 47.6593 42.3473 47.3919 42.3473H46.3836C45.6629 42.3473 44.9971 41.9629 44.637 41.339C44.2769 40.7151 44.2769 39.9462 44.637 39.3223C44.9971 38.6984 45.6629 38.314 46.3836 38.314H47.3919C47.6593 38.314 47.9159 38.4202 48.1049 38.6093C48.294 38.7983 48.4002 39.0549 48.4002 39.3223V41.339ZM44.3669 36.8518V30.1968C44.6995 30.217 45.0322 30.2472 45.3752 30.2472C45.7182 30.2472 46.0509 30.217 46.3836 30.1968V36.2973C45.6741 36.2995 44.9778 36.4908 44.3669 36.8518ZM45.3752 28.2306C41.8987 28.2306 38.5644 26.8495 36.1061 24.3913C33.6478 21.933 32.2668 18.5987 32.2668 15.1221C32.2668 11.6456 33.6478 8.31129 36.1061 5.85301C38.5644 3.39473 41.8987 2.01371 45.3752 2.01371C48.8517 2.01371 52.1861 3.39473 54.6443 5.85301C57.1026 8.31129 58.4836 11.6456 58.4836 15.1221C58.4805 18.5977 57.0985 21.9302 54.6406 24.3876C52.1833 26.8454 48.8508 28.2273 45.3752 28.2306Z" fill="#383C59"/>
</svg>
