<svg width="33" height="33" viewBox="0 0 33 33" fill="none" xmlns="http://www.w3.org/2000/svg">
<path id="Vector (Stroke)" fill-rule="evenodd" clip-rule="evenodd" d="M5.41323 15.5493V30.055H11.5672V23.3516C11.5672 22.462 11.8725 21.5651 12.5519 20.8857C13.2313 20.2063 14.1281 19.901 15.0178 19.901H17.9189C18.8086 19.901 19.7054 20.2063 20.3848 20.8857C21.0642 21.5651 21.3695 22.462 21.3695 23.3516V30.055H27.5235V15.5493H29.0467L16.4683 2.97095L3.88995 15.5493H5.41323ZM17.4837 1.15792L31.8444 15.5185C33.0048 16.679 32.5697 17.5493 30.974 17.5493H29.5235V30.6045C29.5235 31.4748 28.9432 32.055 28.0729 32.055H20.82C19.9497 32.055 19.3695 31.3297 19.3695 30.6045V23.3516C19.3695 22.4813 18.7893 21.901 17.9189 21.901H15.0178C14.1474 21.901 13.5672 22.4813 13.5672 23.3516V30.6045C13.5672 31.4748 12.987 32.055 12.1166 32.055H4.86379C3.99345 32.055 3.41323 31.3297 3.41323 30.6045V17.5493H1.96266C0.367031 17.5493 0.0769175 16.679 1.09232 15.5185L15.4529 1.15792C16.0332 0.577691 16.9035 0.577691 17.4837 1.15792Z" fill="black"/>
</svg>
