<svg width="33" height="33" viewBox="0 0 33 33" fill="none" xmlns="http://www.w3.org/2000/svg">
<path id="Vector" d="M31.8444 15.5185L17.4837 1.15792C16.9035 0.577691 16.0332 0.577691 15.4529 1.15792L1.09232 15.5185C0.0769175 16.679 0.367031 17.5493 1.96266 17.5493H3.41323V30.6045C3.41323 31.3297 3.99345 32.055 4.86379 32.055H12.1166C12.987 32.055 13.5672 31.4748 13.5672 30.6045V23.3516C13.5672 22.4813 14.1474 21.901 15.0178 21.901H17.9189C18.7893 21.901 19.3695 22.4813 19.3695 23.3516V30.6045C19.3695 31.3297 19.9497 32.055 20.82 32.055H28.0729C28.9432 32.055 29.5235 31.4748 29.5235 30.6045V17.5493H30.974C32.5697 17.5493 33.0048 16.679 31.8444 15.5185Z" fill="#AD7FBD"/>
</svg>
