<svg width="12" height="16" viewBox="0 0 12 16" fill="none" xmlns="http://www.w3.org/2000/svg">
    <path d="M0.0968428 8.68876C0.0968428 8.31668 0.36601 8.01584 0.730176 7.91293C1.73559 7.63584 2.47184 6.71751 2.47184 5.62501V1.66668H1.68018C1.24476 1.66668 0.888509 1.31043 0.888509 0.87501C0.888509 0.439594 1.24476 0.0833435 1.68018 0.0833435H9.59684C10.0323 0.0833435 10.3885 0.439594 10.3885 0.87501C10.3885 1.31043 10.0323 1.66668 9.59684 1.66668H8.80518V5.62501C8.80518 6.71751 9.54143 7.63584 10.5468 7.91293C10.911 8.01584 11.1802 8.31668 11.1802 8.68876V8.79168C11.1802 9.22709 10.8239 9.58334 10.3885 9.58334H6.44601L6.43018 15.125C6.43018 15.5604 6.07393 15.9167 5.63851 15.9167C5.20309 15.9167 4.84684 15.5604 4.84684 15.125L4.86268 9.58334H0.888509C0.453093 9.58334 0.0968428 9.22709 0.0968428 8.79168V8.68876Z"
            fill="#B080BC" />
</svg>
