<svg width="16" height="20" viewBox="0 0 16 20" fill="none" xmlns="http://www.w3.org/2000/svg">
<path id="Fill 51" fill-rule="evenodd" clip-rule="evenodd" d="M7.99958 10.9C6.01137 10.9 4.3998 9.28807 4.3998 7.29997C4.3998 5.31188 6.01137 3.69998 7.99958 3.69998C9.98824 3.69998 11.5998 5.31188 11.5998 7.29997C11.5998 9.28807 9.98824 10.9 7.99958 10.9ZM7.99962 0.102965C4.13426 -0.0114076 0.911811 3.1705 0.802363 7.20977C0.799439 7.32458 0.799021 7.43982 0.80111 7.55463C0.80111 13.7945 7.46909 19.5672 7.74981 19.8047C7.89142 19.9317 8.10029 19.9317 8.24232 19.8047C8.53767 19.5279 15.1985 13.1768 15.1985 7.55463C15.2712 3.51406 12.1962 0.177176 8.32963 0.101655C8.21977 0.0994725 8.1099 0.099909 7.99962 0.102965Z" fill="#AD7FBD"/>
</svg>
