<svg width="34" height="50" viewBox="0 0 34 50" fill="none" xmlns="http://www.w3.org/2000/svg">
<g id="Group 56">
<path id="Fill 10" fill-rule="evenodd" clip-rule="evenodd" d="M20.9076 15.1925C20.9076 16.6192 19.8022 19.2129 16.5793 19.2129C13.9367 19.2129 12.2024 17.6893 12.2024 15.1925C12.2024 12.5016 14.3422 11.1399 16.5793 11.1399C18.9846 11.1399 20.9076 12.6188 20.9076 15.1925Z" fill="#B080BC"/>
<path id="Fill 12" fill-rule="evenodd" clip-rule="evenodd" d="M16.4937 23.5451C11.6065 23.5451 7.45303 20.4909 7.45303 15.2372C7.45303 9.61718 11.6065 6.86862 16.4937 6.86862C21.3809 6.86862 25.3514 10.1057 25.3514 15.2372C25.3514 20.4296 21.3809 23.5451 16.4937 23.5451ZM33.8387 0H16.0928C15.6064 0 15.1184 0.0090582 14.6341 0.0531414C6.91593 0.75485 0 5.84616 0 15.2371C0 24.6449 6.53639 30.3872 16.4938 30.3872C22.1138 30.3872 25.0459 32.7082 25.0459 36.3125C25.0459 40.0387 20.5259 41.8102 16.3718 41.8102C11.6679 41.7492 7.2695 39.3669 7.51407 35.1518H0.122286C-0.183277 43.7653 5.92557 49.0187 16.3718 49.0187C24.4354 49.0187 32.8043 44.8646 32.8043 36.3125C32.8043 33.3804 31.7659 28.86 25.3515 26.5384C30.2997 24.2784 32.8043 20.6128 32.8043 15.2371C32.8043 12.2545 32.0156 9.60712 29.6442 6.65294H33.8387V0Z" fill="#B080BC"/>
</g>
</svg>
