<svg width="34" height="50" viewBox="0 0 34 50" fill="none" xmlns="http://www.w3.org/2000/svg">
    <path fill-rule="evenodd" clip-rule="evenodd"
            d="M20.9527 15.1925C20.9527 16.6192 19.8473 19.2128 16.6244 19.2128C13.9818 19.2128 12.2474 17.6893 12.2474 15.1925C12.2474 12.5016 14.3873 11.1399 16.6244 11.1399C19.0296 11.1399 20.9527 12.6188 20.9527 15.1925Z"
            fill="#B080BC" />
    <path fill-rule="evenodd" clip-rule="evenodd"
            d="M16.5389 23.5451C11.6517 23.5451 7.4982 20.4909 7.4982 15.2372C7.4982 9.61718 11.6517 6.86862 16.5389 6.86862C21.4261 6.86862 25.3966 10.1057 25.3966 15.2372C25.3966 20.4296 21.4261 23.5451 16.5389 23.5451ZM33.8839 0H16.138C15.6515 0 15.1636 0.0090582 14.6793 0.0531414C6.9611 0.75485 0.045166 5.84616 0.045166 15.2371C0.045166 24.6449 6.58156 30.3872 16.5389 30.3872C22.1589 30.3872 25.0911 32.7082 25.0911 36.3125C25.0911 40.0387 20.571 41.8102 16.4169 41.8102C11.713 41.7492 7.31467 39.3669 7.55924 35.1518H0.167452C-0.138111 43.7653 5.97074 49.0187 16.4169 49.0187C24.4806 49.0187 32.8494 44.8646 32.8494 36.3125C32.8494 33.3804 31.811 28.86 25.3966 26.5384C30.3448 24.2784 32.8494 20.6128 32.8494 15.2371C32.8494 12.2545 32.0608 9.60712 29.6893 6.65294H33.8839V0Z"
            fill="#B080BC" />
</svg>
