<svg width="24" height="24" viewBox="0 0 24 24" fill="none" xmlns="http://www.w3.org/2000/svg">
    <rect width="24" height="24" fill="#FF0000" fill-opacity="0.01" />
    <path fill-rule="evenodd" clip-rule="evenodd"
            d="M8.7999 5.6C8.7999 4.71634 9.51625 4 10.3999 4H19.9999C20.8836 4 21.5999 4.71634 21.5999 5.6C21.5999 6.48366 20.8836 7.2 19.9999 7.2H10.3999C9.51625 7.2 8.7999 6.48366 8.7999 5.6ZM2.3999 12C2.3999 11.1163 3.11625 10.4 3.9999 10.4H19.9999C20.8836 10.4 21.5999 11.1163 21.5999 12C21.5999 12.8837 20.8836 13.6 19.9999 13.6H3.9999C3.11625 13.6 2.3999 12.8837 2.3999 12ZM3.9999 16.8C3.11625 16.8 2.3999 17.5163 2.3999 18.4C2.3999 19.2837 3.11625 20 3.9999 20H13.5999C14.4836 20 15.1999 19.2837 15.1999 18.4C15.1999 17.5163 14.4836 16.8 13.5999 16.8H3.9999Z"
            fill="white" />
    <mask id="mask0_0_371" style="mask-type:luminance" maskUnits="userSpaceOnUse" x="2" y="4"
            width="20" height="16">
        <path fill-rule="evenodd" clip-rule="evenodd"
                d="M8.7999 5.6C8.7999 4.71634 9.51625 4 10.3999 4H19.9999C20.8836 4 21.5999 4.71634 21.5999 5.6C21.5999 6.48366 20.8836 7.2 19.9999 7.2H10.3999C9.51625 7.2 8.7999 6.48366 8.7999 5.6ZM2.3999 12C2.3999 11.1163 3.11625 10.4 3.9999 10.4H19.9999C20.8836 10.4 21.5999 11.1163 21.5999 12C21.5999 12.8837 20.8836 13.6 19.9999 13.6H3.9999C3.11625 13.6 2.3999 12.8837 2.3999 12ZM3.9999 16.8C3.11625 16.8 2.3999 17.5163 2.3999 18.4C2.3999 19.2837 3.11625 20 3.9999 20H13.5999C14.4836 20 15.1999 19.2837 15.1999 18.4C15.1999 17.5163 14.4836 16.8 13.5999 16.8H3.9999Z"
                fill="white" />
    </mask>
    <g mask="url(#mask0_0_371)"></g>
</svg>
