<svg width="36" height="32" viewBox="0 0 36 32" fill="none" xmlns="http://www.w3.org/2000/svg">
<path id="Vector" d="M33.5386 11.1374C33.3152 11.1374 33.0881 11.1374 32.8647 11.1374C32.0934 11.1748 31.3641 11.5046 30.8215 12.0613C29.9489 9.8649 28.8564 7.38814 28.1682 6.37443C26.948 4.59863 25.1744 4.10616 23.9435 3.88688C23.3192 3.77544 22.6985 3.69996 22.0848 3.63884V1.84149C22.0848 1.71639 22.0605 1.59252 22.0132 1.47694C21.966 1.36137 21.8968 1.25635 21.8095 1.1679C21.7222 1.07944 21.6186 1.00927 21.5045 0.961398C21.3905 0.913525 21.2682 0.888885 21.1448 0.888885H14.4832C14.2357 0.892669 13.9997 0.995193 13.8264 1.17421C13.6531 1.35322 13.5564 1.59429 13.5574 1.84508V3.64244C12.9402 3.69996 12.3194 3.77904 11.6987 3.89048C10.4678 4.10616 8.69419 4.60942 7.47397 6.37802C6.78936 7.37735 5.70038 9.86849 4.82068 12.0649C4.27891 11.509 3.55108 11.1793 2.78105 11.141C2.55403 11.141 2.33056 11.141 2.10708 11.141C1.63954 11.1502 1.19368 11.3425 0.863016 11.6776C0.532352 12.0127 0.342577 12.4646 0.333496 12.9384C0.333496 13.3266 0.333496 13.7436 0.333496 14.254C0.345268 14.7454 0.543598 15.2132 0.887189 15.56C1.23078 15.9069 1.69315 16.1061 2.17803 16.1161H2.9655H3.06837C2.97614 16.2407 2.88746 16.3606 2.80233 16.4756C1.65856 18.235 1.24914 20.3819 1.66369 22.4464L2.51501 26.965C2.59142 27.425 2.81297 27.8476 3.14641 28.1692C3.29218 28.3055 3.45866 28.4172 3.63947 28.4999C3.63947 28.9457 3.63947 29.3878 3.63947 29.8336C3.62528 30.106 3.6676 30.3784 3.76369 30.6332C3.85978 30.888 4.00751 31.1196 4.19735 31.313C4.38719 31.5064 4.61493 31.6573 4.86587 31.756C5.11681 31.8548 5.38538 31.8991 5.65426 31.8861H7.60876C8.15755 31.8852 8.68355 31.6636 9.07127 31.27C9.459 30.8764 9.67676 30.343 9.67676 29.7868V29.3555C12.3655 29.5352 15.0791 29.6287 17.7537 29.6287H17.8778C20.5524 29.6287 23.266 29.5388 25.9548 29.3555V29.7868C25.9548 30.343 26.1725 30.8764 26.5602 31.27C26.948 31.6636 27.474 31.8852 28.0228 31.8861H29.9773C30.247 31.9006 30.5168 31.8575 30.769 31.7595C31.0212 31.6614 31.2502 31.5107 31.4413 31.3172C31.6323 31.1236 31.781 30.8915 31.8777 30.6359C31.9744 30.3803 32.017 30.1069 32.0027 29.8336C32.0027 29.3878 32.0027 28.9457 32.0027 28.4999C32.1835 28.4173 32.35 28.3056 32.4958 28.1692C32.8292 27.8476 33.0507 27.425 33.1272 26.965L33.9785 22.4464C34.3905 20.395 33.9891 18.2617 32.8611 16.5079C32.776 16.3809 32.6873 16.2611 32.5951 16.1485H32.7015H33.489C33.9738 16.1384 34.4362 15.9392 34.7798 15.5924C35.1234 15.2455 35.3217 14.7777 35.3335 14.2864C35.3335 13.776 35.3335 13.359 35.3335 12.9707C35.3335 12.487 35.1449 12.0228 34.8087 11.6794C34.4725 11.336 34.016 11.1412 33.5386 11.1374ZM8.94604 23.2552C8.46337 23.2552 7.99153 23.1102 7.5902 22.8384C7.18887 22.5667 6.87607 22.1804 6.69135 21.7285C6.50664 21.2766 6.45831 20.7793 6.55248 20.2996C6.64664 19.8198 6.87907 19.3791 7.22038 19.0333C7.56168 18.6874 7.99653 18.4518 8.46993 18.3564C8.94334 18.261 9.43403 18.31 9.87997 18.4972C10.3259 18.6843 10.707 19.0013 10.9752 19.408C11.2434 19.8148 11.3865 20.2929 11.3865 20.7821C11.3865 21.438 11.1294 22.067 10.6717 22.5308C10.214 22.9947 9.59329 23.2552 8.94604 23.2552ZM8.12665 13.909C8.97087 11.7521 10.0457 9.28255 10.5423 8.55642C10.819 8.15381 11.2269 7.83748 12.3159 7.65055C14.1292 7.37272 15.9627 7.25246 17.7963 7.29108C19.6298 7.2522 21.4633 7.37246 23.2766 7.65055C24.3692 7.84467 24.7736 8.15022 25.0502 8.55283C25.5504 9.27177 26.6252 11.7521 27.4659 13.9054L8.12665 13.909ZM26.6819 23.2552C26.1993 23.2552 25.7274 23.1102 25.3261 22.8384C24.9248 22.5667 24.612 22.1804 24.4272 21.7285C24.2425 21.2766 24.1942 20.7793 24.2884 20.2996C24.3825 19.8198 24.615 19.3791 24.9563 19.0333C25.2976 18.6874 25.7324 18.4518 26.2058 18.3564C26.6792 18.261 27.1699 18.31 27.6159 18.4972C28.0618 18.6843 28.4429 19.0013 28.7111 19.408C28.9793 19.8148 29.1224 20.2929 29.1224 20.7821C29.1224 21.438 28.8653 22.067 28.4076 22.5308C27.9499 22.9947 27.3292 23.2552 26.6819 23.2552Z" fill="#AD7FBD"/>
</svg>
