<svg width="36" height="32" viewBox="0 0 36 32" fill="none" xmlns="http://www.w3.org/2000/svg">
<path id="Vector" d="M29.6078 31.8546C29.5738 31.8546 29.5397 31.8546 29.5056 31.8546H27.6312C26.268 31.8546 25.1434 30.8247 24.973 29.4858C22.6215 29.6231 20.2359 29.7261 17.8844 29.7261H17.7481C15.4306 29.7261 13.045 29.6574 10.6594 29.5201C10.489 30.859 9.36441 31.8889 8.00122 31.8889H6.12683C6.05867 31.8889 5.99051 31.8889 5.88827 31.8889C4.49099 31.8202 3.43452 30.6187 3.50268 29.2111V28.3529C3.40044 28.2842 3.33228 28.2156 3.26412 28.1469C2.82108 27.735 2.54844 27.1857 2.4462 26.6021L1.62829 22.2765C1.25341 20.3883 1.52605 18.4315 2.41212 16.7494C1.25341 16.5434 0.367332 15.5478 0.333252 14.3462V13.076C0.367332 11.7372 1.38973 10.7073 2.71884 10.6729H3.36636C3.97979 10.7073 4.52507 10.8789 5.03627 11.1536C5.68379 9.54005 6.63802 7.37726 7.31962 6.41602C8.78505 4.28756 11.0684 3.8756 11.8182 3.73828C12.193 3.70395 12.602 3.63529 13.045 3.60096V2.5024C13.045 1.64415 13.7266 0.923216 14.6127 0.888885H21.0197C21.9058 0.888885 22.6215 1.60982 22.6215 2.5024V3.60096C23.0645 3.66962 23.4735 3.70395 23.8483 3.77261C25.1434 4.01292 27.0178 4.52787 28.3469 6.41602C29.0626 7.44592 30.0509 9.78036 30.6302 11.1536C31.1414 10.8789 31.6867 10.7073 32.2661 10.6729H32.9477C34.2768 10.6729 35.3333 11.7715 35.3333 13.1104V14.3806C35.2992 15.6165 34.4131 16.612 33.2544 16.818C34.1405 18.5002 34.4131 20.4227 34.0382 22.3108L33.2203 26.6021C33.1181 27.1857 32.8454 27.7006 32.4024 28.1126C32.3342 28.1812 32.232 28.2499 32.1297 28.3186V29.1768C32.1297 29.2455 32.1297 29.3485 32.1297 29.4171C32.0616 30.8247 30.937 31.8546 29.6078 31.8546ZM25.6205 28.0783C25.7909 28.0783 25.9613 28.1469 26.0976 28.2499C26.2339 28.3872 26.3021 28.5589 26.3021 28.7649V29.1768C26.3021 29.8977 26.8815 30.4814 27.5971 30.4814H29.4715H29.5056C29.8123 30.4814 30.119 30.3784 30.3576 30.1724C30.5962 29.9664 30.7325 29.6574 30.7325 29.3485C30.7325 29.3141 30.7325 29.2798 30.7325 29.2111V29.1768V27.9066C30.7325 27.632 30.9029 27.3917 31.1414 27.2887C31.2437 27.2543 31.3459 27.1857 31.4482 27.0827C31.6526 26.8767 31.7889 26.6021 31.8571 26.3274L32.675 22.0018C33.0499 20.2167 32.675 18.3629 31.6867 16.818C31.6185 16.715 31.5504 16.6464 31.4822 16.5434C31.3118 16.3374 31.2778 16.0627 31.38 15.8224C31.4822 15.5821 31.7208 15.4448 31.9934 15.4448H32.8454C33.4248 15.4448 33.936 14.9299 33.936 14.3462V13.1104C33.936 12.5268 33.4589 12.0461 32.8795 12.0461H32.232C31.6867 12.0805 31.1414 12.3208 30.7666 12.7327C30.5962 12.9044 30.3576 12.973 30.1531 12.9387C29.9146 12.9044 29.7442 12.7327 29.6419 12.5268C28.6536 10.055 27.6994 8.02953 27.1541 7.23994C26.1317 5.76375 24.7003 5.35179 23.5416 5.14581C23.0304 5.04282 22.4852 4.97416 21.8036 4.9055C21.4628 4.87117 21.1901 4.5622 21.1901 4.2189V2.5024C21.2242 2.36508 21.122 2.26209 21.0197 2.26209H14.6127C14.5105 2.26209 14.4082 2.36508 14.4082 2.5024V4.2189C14.4082 4.5622 14.1356 4.87117 13.7948 4.9055C13.1814 4.97416 12.602 5.04282 12.0567 5.14581C11.0002 5.31746 9.46665 5.76375 8.44425 7.23994C7.93306 7.9952 7.0129 9.95201 5.95643 12.5268C5.85419 12.7327 5.68379 12.9044 5.44523 12.9387C5.20667 12.973 5.00219 12.9044 4.83179 12.7327C4.42283 12.3208 3.87756 12.0805 3.33228 12.0461H2.71884C2.17356 12.0461 1.69645 12.5268 1.69645 13.076V14.3119C1.69645 14.8955 2.20764 15.3761 2.787 15.4105H3.639C3.91164 15.4105 4.15019 15.5478 4.25243 15.7881C4.35467 16.0284 4.35467 16.3031 4.18427 16.509L3.94572 16.818C2.9574 18.3629 2.58252 20.1824 2.9574 22.0018L3.77532 26.3274C3.84348 26.6364 3.9798 26.911 4.18427 27.117C4.25243 27.1857 4.35467 27.2543 4.45691 27.2887C4.69547 27.3917 4.86587 27.632 4.86587 27.9066V29.1768V29.2111C4.83179 29.8634 5.34299 30.4127 5.95643 30.447C5.99051 30.447 6.02459 30.447 6.05867 30.447H7.96714C8.68281 30.447 9.26217 29.8634 9.26217 29.1425V28.7305C9.26217 28.5245 9.33033 28.3529 9.46665 28.2156C9.60297 28.0783 9.77337 28.0096 9.97785 28.0439C12.5679 28.2156 15.158 28.3186 17.6799 28.3186H17.8162C20.4063 28.3186 22.9963 28.2156 25.5183 28.0439C25.5864 28.0783 25.6205 28.0783 25.6205 28.0783ZM26.3362 23.6154C24.6663 23.6154 23.3031 22.2422 23.3031 20.56C23.3031 18.8778 24.6663 17.5046 26.3362 17.5046C28.0061 17.5046 29.3693 18.8778 29.3693 20.56C29.3693 22.2422 28.0061 23.6154 26.3362 23.6154ZM26.3362 18.9121C25.416 18.9121 24.6663 19.6674 24.6663 20.5943C24.6663 21.5212 25.416 22.2765 26.3362 22.2765C27.2563 22.2765 28.0061 21.5212 28.0061 20.5943C28.0061 19.6331 27.2563 18.9121 26.3362 18.9121ZM9.29625 23.6154C7.62634 23.6154 6.26314 22.2422 6.26314 20.56C6.26314 18.8778 7.62634 17.5046 9.29625 17.5046C10.9662 17.5046 12.3294 18.8778 12.3294 20.56C12.3294 22.2422 10.9662 23.6154 9.29625 23.6154ZM9.29625 18.9121C8.37609 18.9121 7.62634 19.6674 7.62634 20.5943C7.62634 21.5212 8.37609 22.2765 9.29625 22.2765C10.2164 22.2765 10.9662 21.5212 10.9662 20.5943C10.9662 19.6331 10.2164 18.9121 9.29625 18.9121ZM8.51241 14.6896C8.27386 14.6896 8.06938 14.5866 7.93306 14.3806C7.79674 14.2089 7.79674 13.9686 7.8649 13.7283C8.47833 12.1835 9.67113 9.3684 10.2505 8.47582C10.6935 7.85788 11.307 7.51458 12.3975 7.3086C14.1697 7.03396 16.01 6.93097 17.7821 6.9653C19.5543 6.93097 21.3605 7.03396 23.1327 7.3086C24.2573 7.51458 24.8707 7.82355 25.2797 8.44149C25.8931 9.29974 27.0518 12.1491 27.6653 13.694C27.7334 13.9 27.7334 14.1403 27.5971 14.3462C27.4608 14.5179 27.2563 14.6552 27.0178 14.6552L8.51241 14.6896ZM17.1687 8.37283C15.6351 8.37283 14.1015 8.47582 12.6361 8.71613C11.6818 8.88778 11.5114 9.12809 11.3751 9.29974C11.0343 9.78036 10.2846 11.4282 9.50073 13.3163H26.0635C25.2797 11.3939 24.5299 9.78036 24.1891 9.29974C24.0869 9.12809 23.9165 8.88778 22.9282 8.71613C21.2583 8.47582 19.5202 8.3385 17.7821 8.37283C17.6117 8.37283 17.3732 8.37283 17.1687 8.37283Z" fill="#273B4A"/>
</svg>
