<svg width="90" height="90" viewBox="0 0 90 90" fill="none" xmlns="http://www.w3.org/2000/svg">
<g id="001-speedometer 1" clip-path="url(#clip0_183_6589)">
<g id="Group">
<path id="Vector" d="M53.4349 74.7092H36.5649C35.1152 74.7092 33.9399 75.8845 33.9399 77.3342C33.9399 78.7839 35.1152 79.9592 36.5649 79.9592H53.4349C54.8846 79.9592 56.0599 78.7839 56.0599 77.3342C56.0599 75.8845 54.8846 74.7092 53.4349 74.7092Z" fill="#AD7FBD"/>
<path id="Vector_2" d="M52.3827 58.5109C52.9339 57.4049 53.2456 56.1585 53.2456 54.8388C53.2456 50.2848 49.5538 46.593 44.9998 46.593C43.6797 46.593 42.4332 46.9049 41.327 47.4563L28.9626 35.0913C27.9376 34.0662 26.2755 34.0662 25.2503 35.0913C24.2252 36.1163 24.2252 37.7783 25.2503 38.8036L37.6156 51.1694C37.0653 52.2747 36.7541 53.5202 36.7541 54.8388C36.7541 59.3929 40.4459 63.0847 44.9999 63.0847C46.3189 63.0847 47.5646 62.7733 48.67 62.2228L51.5787 65.1318C52.6039 66.157 54.2657 66.1573 55.291 65.1322C56.3161 64.1072 56.3163 62.4452 55.2912 61.4199L52.3827 58.5109ZM44.9998 57.8347C43.3479 57.8347 42.0039 56.4908 42.0039 54.839C42.0039 53.1872 43.3478 51.8432 44.9998 51.8432C46.6518 51.8432 47.9956 53.1872 47.9956 54.839C47.9956 56.4908 46.6516 57.8347 44.9998 57.8347Z" fill="#AD7FBD"/>
<path id="Vector_3" d="M44.9997 10.0408C20.2969 10.0408 0.199707 30.1379 0.199707 54.8408C0.199707 62.714 2.27556 70.4607 6.20308 77.2437C6.92863 78.4967 8.53198 78.9253 9.78603 78.202C9.78656 78.2017 17.0925 73.9842 17.0925 73.9842C18.3479 73.2593 18.7781 71.6541 18.0532 70.3984C17.3284 69.143 15.7233 68.7123 14.4675 69.4377L9.50936 72.3002C7.23191 67.6765 5.88353 62.6288 5.54036 57.4659H11.2597C12.7094 57.4659 13.8847 56.2906 13.8847 54.8409C13.8847 53.3912 12.7094 52.2159 11.2597 52.2159H5.53896C5.88756 46.9229 7.28143 41.9114 9.51688 37.3859L14.4676 40.2442C15.7234 40.9696 17.3289 40.5389 18.0534 39.2834C18.7782 38.0278 18.3481 36.4224 17.0926 35.6977L12.148 32.8427C15.0259 28.5591 18.7182 24.8668 23.0019 21.9889L25.8565 26.933C26.5813 28.1886 28.1868 28.6191 29.4422 27.8937C30.6977 27.1687 31.1278 25.5634 30.403 24.308L27.5449 19.3578C32.0704 17.1225 37.082 15.7295 42.3747 15.3804V21.1009C42.3747 22.5506 43.55 23.7259 44.9997 23.7259C46.4494 23.7259 47.6247 22.5506 47.6247 21.1009V15.3804C52.9174 15.7295 57.9291 17.1227 62.4546 19.3578L59.5965 24.308C58.8716 25.5634 59.3018 27.1689 60.5572 27.8937C61.8127 28.6191 63.4181 28.1886 64.143 26.933L66.9976 21.9889C71.2812 24.8666 74.9737 28.5589 77.8514 32.8427L72.907 35.6973C71.6515 36.4222 71.2214 38.0275 71.9462 39.2831C72.6709 40.5385 74.2762 40.9692 75.532 40.2438L80.4827 37.3856C82.718 41.9111 84.112 46.9225 84.4606 52.2156H78.7397C77.29 52.2156 76.1147 53.3909 76.1147 54.8406C76.1147 56.2903 77.29 57.4656 78.7397 57.4656H84.4591C84.1159 62.6284 82.7675 67.6761 80.4901 72.2998L75.532 69.4373C74.2762 68.712 72.6711 69.1426 71.9462 70.3981C71.2214 71.6537 71.6515 73.2592 72.907 73.9838C72.907 73.9838 80.2129 78.2013 80.2134 78.2017C81.4676 78.925 83.0708 78.4966 83.7963 77.2434C87.7239 70.4607 89.7997 62.7142 89.7997 54.8408C89.7997 30.1379 69.7025 10.0408 44.9997 10.0408Z" fill="#AD7FBD"/>
</g>
</g>
<defs>
<clipPath id="clip0_183_6589">
<rect width="89.6" height="89.6" fill="white" transform="translate(0.200195 0.200012)"/>
</clipPath>
</defs>
</svg>
