<svg width="48" height="74" viewBox="0 0 48 74" fill="none" xmlns="http://www.w3.org/2000/svg">
<g id="Group">
<path id="Vector" d="M48 17C48 16.9 48 16.8 48 16.7C47.9 16.2 47.6 15.9 47.2 15.6C46.3 14.6 44.3 12.6 40.1 8.4L32.6 0.9C32.5 0.8 32.5 0.8 32.4 0.7C32.4 0.7 32.4 0.7 32.3 0.7C32.2 0.7 32.2 0.6 32.1 0.6H32C31.9 0.6 31.9 0.6 31.8 0.5C31.7 0.5 31.6 0.5 31.5 0.5H1.5C0.7 0.5 0 1.2 0 2V72C0 72.6 0.3 73.1 0.9 73.4C1.4 73.6 2.1 73.5 2.5 73.2L6 70L9.5 73.1C10.1 73.6 10.9 73.6 11.5 73.1L15 70L18.5 73.1C19.1 73.6 19.9 73.6 20.5 73.1L24 70L27.5 73.1C28.1 73.6 28.9 73.6 29.5 73.1L33 70L36.5 73.1C37.1 73.6 37.9 73.6 38.5 73.1L42 70L45.5 73.1C45.8 73.3 46.1 73.5 46.5 73.5C46.7 73.5 46.9 73.5 47.1 73.4C47.6 73.2 48 72.6 48 72V17ZM42.9 15.5H33V5.6C35.8 8.4 40.1 12.7 42.9 15.5ZM43 66.9C42.4 66.4 41.6 66.4 41 66.9L37.5 70L34 66.9C33.4 66.4 32.6 66.4 32 66.9L28.5 70L25 66.9C24.4 66.4 23.6 66.4 23 66.9L19.5 70L16 66.9C15.4 66.4 14.6 66.4 14 66.9L10.5 70L7 66.9C6.7 66.6 6.4 66.5 6 66.5C5.6 66.5 5.3 66.6 5 66.9L3 68.7V3.5H30V17C30 17.8 30.7 18.5 31.5 18.5H45V68.7L43 66.9ZM40.5 60C40.5 60.8 39.8 61.5 39 61.5H9C8.2 61.5 7.5 60.8 7.5 60C7.5 59.2 8.2 58.5 9 58.5H39C39.8 58.5 40.5 59.2 40.5 60ZM24 42.5H9C8.2 42.5 7.5 41.8 7.5 41C7.5 40.2 8.2 39.5 9 39.5H24C24.8 39.5 25.5 40.2 25.5 41C25.5 41.8 24.8 42.5 24 42.5ZM19 50.5H9C8.2 50.5 7.5 49.8 7.5 49C7.5 48.2 8.2 47.5 9 47.5H19C19.8 47.5 20.5 48.2 20.5 49C20.5 49.8 19.8 50.5 19 50.5ZM39 42.5H34C33.2 42.5 32.5 41.8 32.5 41C32.5 40.2 33.2 39.5 34 39.5H39C39.8 39.5 40.5 40.2 40.5 41C40.5 41.8 39.8 42.5 39 42.5ZM39 50.5H34C33.2 50.5 32.5 49.8 32.5 49C32.5 48.2 33.2 47.5 34 47.5H39C39.8 47.5 40.5 48.2 40.5 49C40.5 49.8 39.8 50.5 39 50.5ZM19 34.5H9C8.2 34.5 7.5 33.8 7.5 33C7.5 32.2 8.2 31.5 9 31.5H19C19.8 31.5 20.5 32.2 20.5 33C20.5 33.8 19.8 34.5 19 34.5ZM39 34.5H34C33.2 34.5 32.5 33.8 32.5 33C32.5 32.2 33.2 31.5 34 31.5H39C39.8 31.5 40.5 32.2 40.5 33C40.5 33.8 39.8 34.5 39 34.5ZM24 26.5H9C8.2 26.5 7.5 25.8 7.5 25C7.5 24.2 8.2 23.5 9 23.5H24C24.8 23.5 25.5 24.2 25.5 25C25.5 25.8 24.8 26.5 24 26.5ZM39 26.5H34C33.2 26.5 32.5 25.8 32.5 25C32.5 24.2 33.2 23.5 34 23.5H39C39.8 23.5 40.5 24.2 40.5 25C40.5 25.8 39.8 26.5 39 26.5Z" fill="#AD7FBD"/>
</g>
</svg>
