<svg width="33" height="33" viewBox="0 0 33 33" fill="none" xmlns="http://www.w3.org/2000/svg">
<path id="Vector" d="M30.8334 7.72237H26.1674V4.38904C26.1674 2.91866 24.9714 1.72237 23.5007 1.72237C22.948 1.72237 22.4342 1.89164 22.0079 2.18066C21.6437 1.14119 20.6633 0.389038 19.5007 0.389038C18.1366 0.389038 17.0219 1.422 16.8656 2.74447C16.4781 2.52478 16.037 2.38904 15.5606 2.38904C14.1754 2.38904 13.0472 3.45422 12.9192 4.80619C12.5074 4.54561 12.0232 4.38904 11.5007 4.38904C10.03 4.38904 8.83407 5.58533 8.83407 7.0557V7.72237H1.50008C0.765055 7.72237 0.166748 8.32035 0.166748 9.0557V23.7224C0.166748 24.4577 0.765055 25.0557 1.50008 25.0557H8.1674V27.722C8.1674 30.2953 10.2611 32.3887 12.8341 32.3887H21.5007C24.0737 32.3887 26.1674 30.2953 26.1674 27.722V25.0557H30.8334C31.5684 25.0557 32.1667 24.4577 32.1667 23.7224V9.0557C32.1667 8.32035 31.5684 7.72237 30.8334 7.72237ZM23.5007 3.0557C24.2358 3.0557 24.8341 3.65369 24.8341 4.38904V7.72237H22.1674V4.38904C22.1674 3.65369 22.7657 3.0557 23.5007 3.0557ZM19.5007 1.72237C20.2358 1.72237 20.8341 2.32035 20.8341 3.0557V4.38904V7.72237H18.2273V5.0557C18.2273 4.86527 18.2055 4.68013 18.1674 4.5009V3.0557C18.1674 2.32035 18.7657 1.72237 19.5007 1.72237ZM14.2273 5.0557C14.2273 4.32035 14.8256 3.72237 15.5606 3.72237C16.1651 3.72237 16.6713 4.12935 16.8341 4.68201V7.72237H14.2273V5.0557ZM10.1674 7.0557C10.1674 6.32035 10.7657 5.72237 11.5007 5.72237C12.2358 5.72237 12.8341 6.32035 12.8341 7.0557V7.72237H10.1674V7.0557ZM24.8341 27.722C24.8341 29.5599 23.3386 31.0554 21.5007 31.0554H12.8341C10.9962 31.0554 9.50073 29.5599 9.50073 27.722V25.0557H18.8323H19.5007C20.9714 25.0557 22.1674 23.8594 22.1674 22.389V18.502C22.1674 17.7419 22.7332 17.0938 23.4278 17.0573C23.8061 17.0378 24.1505 17.1674 24.4181 17.4216C24.6863 17.6761 24.8341 18.0196 24.8341 18.3887V27.722ZM23.3582 15.726C21.9428 15.7998 20.8341 17.0192 20.8341 18.502V21.0557H6.76701C6.50138 19.7517 5.47144 18.7217 4.1674 18.4561V14.322C5.47144 14.0564 6.50138 13.0264 6.76701 11.7224H25.5678C25.8334 13.0264 26.8627 14.0564 28.1667 14.322V18.4561C27.3474 18.623 26.646 19.0975 26.1674 19.7474V18.3887C26.1674 17.6608 25.8647 16.9558 25.336 16.4545C24.8009 15.9463 24.1147 15.684 23.3582 15.726ZM26.1674 23.7224V22.389C26.5359 22.389 26.8341 22.0905 26.8341 21.7224C26.8341 20.6195 27.7312 19.7224 28.8334 19.7224C29.2019 19.7224 29.5001 19.4239 29.5001 19.0557V13.7224C29.5001 13.3542 29.2019 13.0557 28.8334 13.0557C27.7312 13.0557 26.8341 12.1586 26.8341 11.0557C26.8341 10.6875 26.5359 10.389 26.1674 10.389H6.1674C5.79891 10.389 5.50073 10.6875 5.50073 11.0557C5.50073 12.1586 4.6036 13.0557 3.50073 13.0557C3.13224 13.0557 2.83407 13.3542 2.83407 13.7224V19.0557C2.83407 19.4239 3.13224 19.7224 3.50073 19.7224C4.6036 19.7224 5.50073 20.6195 5.50073 21.7224C5.50073 22.0905 5.79891 22.389 6.1674 22.389H20.8341C20.8341 23.1244 20.2358 23.7224 19.5007 23.7224H8.1674H1.50008V9.0557H8.83407H12.894H14.1674H16.8341H18.2273H20.8341H22.1674H26.1674H30.8334L30.8341 23.7224H26.1674Z" fill="#273B4A"/>
</svg>
