<svg width="33" height="33" viewBox="0 0 33 33" fill="none" xmlns="http://www.w3.org/2000/svg">
<g id="Group">
<path id="Vector" d="M27.4989 18.3435C27.7116 18.25 27.9318 18.1704 28.1649 18.1229V13.9888C26.8608 13.7231 25.8315 12.6932 25.5659 11.3892H6.76514C6.49951 12.6932 5.46956 13.7231 4.16553 13.9888V18.1229C5.46956 18.3885 6.49951 19.4185 6.76514 20.7225H19.4989V18.1688C19.4989 15.9764 21.1629 14.172 23.2866 14.0614C23.3582 14.0575 23.4305 14.0555 23.5021 14.0555C25.7059 14.0555 27.4989 15.8498 27.4989 18.0555V18.3435ZM16.1652 18.7239C14.6916 18.7239 13.497 17.5293 13.497 16.0557C13.497 14.5821 14.6916 13.3875 16.1652 13.3875C17.6388 13.3875 18.8334 14.5821 18.8334 16.0557C18.8334 17.5293 17.6388 18.7239 16.1652 18.7239Z" fill="#AD7FBD"/>
<path id="Vector_2" d="M30.8332 7.38672H1.49984C0.759847 7.38672 0.166504 7.98674 0.166504 8.72005V23.3867C0.166504 24.1267 0.759847 24.7201 1.49984 24.7201H19.4988V22.0558H6.16545C5.79696 22.0558 5.49878 21.7573 5.49878 21.3892C5.49878 20.2863 4.60164 19.3892 3.49878 19.3892C3.13029 19.3892 2.83211 19.0907 2.83211 18.7225V13.3892C2.83211 13.021 3.13029 12.7225 3.49878 12.7225C4.60164 12.7225 5.49878 11.8254 5.49878 10.7225C5.49878 10.3543 5.79696 10.0558 6.16545 10.0558H26.1654C26.5339 10.0558 26.8321 10.3543 26.8321 10.7225C26.8321 11.8254 27.7292 12.7225 28.8315 12.7225C29.2 12.7225 29.4981 13.021 29.4981 13.3892V18.7225C29.4981 19.0907 29.2 19.3892 28.8315 19.3892C28.3177 19.3892 27.8534 19.5895 27.4988 19.9093V24.7201H30.8332C31.5665 24.7201 32.1665 24.1267 32.1665 23.3867V8.72005C32.1665 7.98674 31.5665 7.38672 30.8332 7.38672Z" fill="#AD7FBD"/>
<path id="Vector_3" d="M26.165 4.05562C26.165 2.95109 25.2696 2.05566 24.165 2.05566C23.0605 2.05566 22.165 2.95109 22.165 4.05562V6.05351H26.165V4.05562Z" fill="#AD7FBD"/>
<path id="Vector_4" d="M21.4985 2.72228C21.4985 1.61775 20.6031 0.722321 19.4985 0.722321C18.394 0.722321 17.4985 1.61775 17.4985 2.72228V6.0535H21.4985V2.72228Z" fill="#AD7FBD"/>
<path id="Vector_5" d="M16.8496 4.67969C16.8496 3.57511 15.9542 2.67969 14.8496 2.67969C13.745 2.67969 12.8496 3.57511 12.8496 4.67969V6.05355H16.8496V4.67969Z" fill="#AD7FBD"/>
<path id="Vector_6" d="M10.1654 4.72232C9.29667 4.72232 8.56466 5.27957 8.28857 6.0535H12.0423C11.7662 5.27957 11.0342 4.72232 10.1654 4.72232Z" fill="#AD7FBD"/>
<path id="Vector_7" d="M23.3563 15.3927C21.9409 15.4666 20.8322 16.686 20.8322 18.1687V24.7224C20.8322 25.4578 20.2339 26.0558 19.4989 26.0558H8.16553V27.3888C8.16553 29.962 10.2593 32.0554 12.8322 32.0554H21.4989C24.0718 32.0554 26.1655 29.962 26.1655 27.3888V18.0554C26.1655 16.5375 24.9032 15.311 23.3563 15.3927Z" fill="#AD7FBD"/>
</g>
</svg>
