<?xml version="1.0" encoding="utf-8"?><!-- Generator: Adobe Illustrator 26.0.1, SVG Export Plug-In . SVG Version: 6.00 Build 0)  -->
<svg version="1.1" id="Layer_1" xmlns="http://www.w3.org/2000/svg" x="0px" y="0px" viewBox="0 0 2500 2500"
        style="enable-background:new 0 0 2500 2500;" xml:space="preserve">
<style type="text/css">
	.st0{fill:#BEC6CF;}
</style>
    <path class="st0" d="M1813.72,1009.43c-10.89-34.7-39.99-54.87-80.31-54.87c-160.76-0.06-321.53-0.03-482.3-0.03
	c-15.12,0-30.23-0.33-45.35,0.27c-42.59,1.75-74.33,34.7-74.81,77.38c-0.24,19.52-0.06,39.07-0.06,58.63
	c0,192.47,0.06,384.98-0.06,577.45c0,31.41,12.99,55.05,39.58,71.82c8.52,5.38,22.42,3.08,26.12,12.66
	c3.46,8.99,0.5,20.38,0.83,30.67c0.62,18.66,15.32,32.92,33.37,32.8c18.07-0.15,32.33-14.46,32.89-33.31
	c0.24-7.37,0.8-14.82-0.12-22.1c-1.15-9.52,2.45-11.21,11.39-11.18c126.1,0.33,252.23,0.21,378.32,0.24
	c9.91,0,23.16-3.52,28.84,1.48c6.57,5.77,1.39,19.35,2.13,29.49c0.06,0.74,0,1.48,0.03,2.22c0.68,18.78,14.97,33.1,33.04,33.16
	c18.07,0.06,32.63-14.23,33.25-32.95c0.3-8.81,0.41-17.69-0.03-26.53c-0.3-5.86,1.66-7.87,7.51-9.41
	c27.69-7.22,46.17-24.7,55.46-51.91c0.86-2.54-0.03-6.18,3.52-7.54v-668.41C1813.42,1016.95,1814.75,1012.75,1813.72,1009.43z
	 M1330.09,1083.83c0,178.9,0,357.79-0.03,536.69c0,4.76,0.21,9.67-0.77,14.29c-3.64,16.83-19.26,28.13-35.73,26.38
	c-17.16-1.83-29.76-15.83-29.79-34.08c-0.18-61.61-0.09-123.2-0.09-184.78v-90.75c0-90.75-0.03-181.47,0.03-272.22
	c0.03-22.36,14.82-37.27,35.41-36.09c16.42,0.95,29.52,13.87,30.85,30.61C1330.24,1077.17,1330.09,1080.51,1330.09,1083.83z
	 M1684.13,1625.87c-0.03,25.82-23.49,42.56-45.88,32.74c-13.78-6.03-20.47-17.27-20.47-32.45c0.03-33.57,0-67.12,0-100.69
	c0-148.28,0-296.57,0.03-444.85c0-21.65,12.1-36.21,30.82-37.36c20.29-1.24,35.44,13.4,35.5,34.87
	c0.15,50.91,0.06,101.78,0.06,152.69v122.84C1684.19,1444.4,1684.28,1535.15,1684.13,1625.87z" />
    <path class="st0" d="M1544.76,683.02c8.14,2.93,16.68,5.05,24.34,8.93c30.08,15.23,47.14,40.09,48.29,73.69
	c1.31,38.29,0.2,76.66,0.56,115c0.06,6.84-2.74,7.69-8.44,7.59c-16.58-0.29-33.18-0.46-49.75,0.07c-6.99,0.23-8.57-2.01-8.51-8.69
	c0.33-35.02,0.19-70.04,0.14-105.06c-0.02-18.02-6.85-25.07-24.41-25.11c-35.38-0.07-70.77-0.07-106.15,0
	c-17.18,0.03-24.28,7.05-24.32,24.06c-0.08,35.02-0.26,70.04,0.16,105.05c0.09,7.71-1.91,10.05-9.71,9.75
	c-16.19-0.62-32.43-0.39-48.64-0.08c-5.78,0.11-8.44-0.9-8.38-7.66c0.35-38.33-0.27-76.68,0.4-115
	c0.62-35.51,25.27-66.97,59.63-78.42c3.67-1.22,8.16-0.55,10.95-4.13C1448.86,683.02,1496.81,683.02,1544.76,683.02z" />
    <path class="st0" d="M1064.29,1652.29c0.8-54.93,0.24-109.89,0.24-164.82c0-101.04-0.03-202.09,0.03-303.13
	c0-5.71,0.86-10.06-8.08-10.03c-98.83,0.38-197.65-0.06-296.45,0.44c-42.12,0.21-75.93,34.28-76.02,76.32
	c-0.33,140.86-0.38,281.72,0.09,422.57c0.09,30.47,14.05,56.85,42.57,66.49c23.99,8.1,26,21.36,23.6,40.91
	c-0.09,0.71-0.03,1.48,0,2.19c0.74,18.72,15.17,33.01,33.25,32.98c18.07-0.06,32.45-14.35,33.07-33.13
	c0.24-7.37,0.71-14.82-0.12-22.1c-1.06-9.2,1.92-11.42,11.21-11.39c85.9,0.41,171.8,0.24,259.83,0.24
	C1067.6,1719.02,1063.82,1686.36,1064.29,1652.29z M882.97,1626.14c-0.06,25.68-23.87,42.42-46.11,32.42
	c-13.73-6.18-20.26-17.48-20.23-32.66c0.06-54.6,0.03-109.18,0.03-163.78s-0.12-109.21,0.06-163.78
	c0.06-25.32,22.66-41.56,45.11-32.86c13.16,5.09,21.15,17.27,21.18,33.1c0.09,43.16,0.03,86.31,0.03,129.47
	C883.03,1494.09,883.15,1560.12,882.97,1626.14z" />
    <path class="st0" d="M1078.05,970.17c-8.48,20.25-13.82,40.36-13.52,61.6c0.08,5.47-3.8,4.38-6.91,4.39
	c-13.63,0.07-27.25-0.12-40.88,0.07c-15.74,0.22-22.89,7.42-23.03,23c-0.12,13.63-0.28,27.26,0.09,40.88
	c0.16,5.85-0.91,8.4-7.61,8.2c-17.29-0.5-34.61-0.18-51.92-0.15c-3.69,0.01-7.36,0.78-7.06-5.23c1.05-21.29-2.05-42.74,2-63.91
	c7.22-37.7,39.12-66.58,77.42-68.62C1030.06,969.15,1053.62,970.17,1078.05,970.17z" />
</svg>
