<svg width="28" height="28" viewBox="0 0 28 28" fill="none" xmlns="http://www.w3.org/2000/svg">
<g id="Group 8723">
<circle id="Ellipse 48" cx="14" cy="14" r="14" fill="#DC9CEC" fill-opacity="0.5"/>
<g id="Group">
<path id="Vector" d="M14 15C17.3137 15 20 12.3137 20 9C20 5.68629 17.3137 3 14 3C10.6863 3 8 5.68629 8 9C8 12.3137 10.6863 15 14 15Z" fill="#925C9F"/>
<path id="Vector_2" d="M23.9512 19.0749C23.5813 16.6095 20.3658 15.783 18.0716 15C16.974 15.99 15.5542 16.5901 14 16.5901C12.4458 16.5901 11.0262 15.99 9.92863 15C7.63417 15.783 4.41891 16.6095 4.04876 19.0749C3.3902 23.4602 9.54318 26 14 26C18.4571 26 24.6098 23.4602 23.9512 19.0749Z" fill="#925C9F"/>
</g>
</g>
</svg>
