<svg width="101" height="32" viewBox="0 0 101 32" fill="none" xmlns="http://www.w3.org/2000/svg">
    <path fill-rule="evenodd" clip-rule="evenodd"
            d="M22.9339 14.4172C22.9339 17.1416 25.0561 18.7255 27.5537 18.7255C30.0507 18.7255 32.0797 17.1096 32.0797 14.4172C32.0797 11.7567 30.0507 10.0778 27.5537 10.0778C25.0561 10.0778 22.9339 11.5032 22.9339 14.4172ZM35.888 14.4172C35.888 17.2046 33.7593 22.273 27.5537 22.273C22.4658 22.273 19.1257 19.2955 19.1257 14.4172C19.1257 9.15927 23.2459 6.49835 27.5537 6.49835C32.185 6.49835 35.888 9.38823 35.888 14.4172Z"
            fill="white" />
    <path fill-rule="evenodd" clip-rule="evenodd"
            d="M10.6833 14.4599C10.6833 15.1994 10.1181 16.5447 8.47138 16.5447C7.12145 16.5447 6.23486 15.7545 6.23486 14.4599C6.23486 13.0642 7.32853 12.3585 8.47138 12.3585C9.70051 12.3585 10.6833 13.1251 10.6833 14.4599Z"
            fill="white" />
    <path fill-rule="evenodd" clip-rule="evenodd"
            d="M8.42792 18.7909C5.93082 18.7909 3.8082 17.2074 3.8082 14.483C3.8082 11.569 5.93082 10.1435 8.42792 10.1435C10.9254 10.1435 12.954 11.8225 12.954 14.483C12.954 17.1758 10.9254 18.7909 8.42792 18.7909ZM17.2911 6.58209H8.37701C7.86146 6.58209 7.34504 6.60967 6.83596 6.68979C3.15847 7.26899 0 9.88 0 14.483C0 19.3613 3.34011 22.3387 8.42792 22.3387C11.2999 22.3387 12.7978 23.5427 12.7978 25.4112C12.7978 27.3436 10.488 28.2621 8.36536 28.2621C5.96189 28.2306 3.71458 26.9951 3.83927 24.8097H0.0625569C-0.0936196 29.2756 3.02775 32 8.36536 32C12.4859 32 16.7622 29.846 16.7622 25.4112C16.7622 23.8907 16.2316 21.5468 12.954 20.3433C15.4826 19.1713 16.7622 17.2704 16.7622 14.483C16.7622 12.9367 16.3593 11.5638 15.1474 10.0319H17.2911V6.58209Z"
            fill="white" />
    <path fill-rule="evenodd" clip-rule="evenodd" d="M39.7205 22.0018H43.5524V0H39.7205V22.0018Z"
            fill="#B080BC" />
    <path fill-rule="evenodd" clip-rule="evenodd"
            d="M47.0696 22.0018H50.9839V6.91058H47.0696V22.0018Z" fill="#B080BC" />
    <path fill-rule="evenodd" clip-rule="evenodd"
            d="M49.0132 0.167053C48.3143 0.167053 47.7275 0.408278 47.2681 0.88416C46.8082 1.3596 46.5752 1.96901 46.5752 2.69619C46.5752 3.40498 46.8034 4.00126 47.2543 4.46707C47.7042 4.93376 48.2962 5.17017 49.0132 5.17017C49.7479 5.17017 50.3489 4.93376 50.7993 4.46707C51.2501 4.00082 51.4784 3.40498 51.4784 2.69619C51.4784 1.96945 51.2501 1.36004 50.7997 0.88416C50.3489 0.408278 49.7475 0.167053 49.0132 0.167053Z"
            fill="#B080BC" />
    <path fill-rule="evenodd" clip-rule="evenodd"
            d="M71.6029 6.60406C70.5791 6.60406 69.6563 6.83478 68.8603 7.28965C68.0747 7.73883 67.4371 8.35349 66.9642 9.11788C66.5617 8.31672 65.9827 7.69242 65.2424 7.26207C64.4913 6.82559 63.5452 6.60406 62.4308 6.60406C61.5347 6.60406 60.7275 6.79275 60.0321 7.164C59.3551 7.52518 58.7844 8.02471 58.3331 8.64944V6.91052H54.5007V22.0017H58.3603V13.6202C58.3603 12.4053 58.6217 11.4916 59.1377 10.9032C59.6528 10.3166 60.3638 10.0189 61.25 10.0189C62.1719 10.0189 62.8501 10.2977 63.2652 10.8463C63.6815 11.3975 63.8925 12.1807 63.8925 13.1745V22.0017H67.8072V13.5365C67.8072 12.3589 68.0639 11.4675 68.5704 10.8896C69.0765 10.3122 69.7642 10.0189 70.6145 10.0189C71.5731 10.0189 72.2742 10.3117 72.6983 10.8879C73.1237 11.4671 73.3394 12.2739 73.3394 13.2861V22.0017H77.2814V12.7284C77.2814 10.8371 76.8038 9.32758 75.8615 8.24142C74.9189 7.15525 73.4861 6.60406 71.6029 6.60406Z"
            fill="#B080BC" />
    <path fill-rule="evenodd" clip-rule="evenodd"
            d="M88.6558 18.2821C88.1666 18.5028 87.6333 18.6148 87.0716 18.6148C86.5095 18.6148 85.9766 18.5028 85.4874 18.2821C84.9969 18.061 84.565 17.7624 84.2031 17.3951C83.8402 17.0274 83.5507 16.5843 83.3428 16.0782C83.1344 15.573 83.0287 15.0175 83.0287 14.4282C83.0287 13.8578 83.1344 13.3074 83.3428 12.7922C83.5512 12.2773 83.8402 11.8299 84.2035 11.4617C84.5659 11.094 84.9977 10.7949 85.4874 10.5747C85.9766 10.3541 86.5095 10.242 87.0716 10.242C87.6333 10.242 88.1666 10.3541 88.6558 10.5747C89.1446 10.7949 89.5769 11.0935 89.9402 11.4617C90.3026 11.8299 90.592 12.2773 90.8009 12.7922C91.0092 13.3083 91.1145 13.8586 91.1145 14.4282C91.1145 15.0166 91.0092 15.5722 90.8009 16.0782C90.592 16.5839 90.3026 17.0269 89.9402 17.3951C89.5778 17.7624 89.1455 18.061 88.6558 18.2821ZM92.6474 8.8958C91.9437 8.19095 91.1007 7.62663 90.1416 7.21861C89.1817 6.81102 88.1398 6.60394 87.044 6.60394C85.9301 6.60394 84.883 6.81102 83.9325 7.21861C82.9821 7.62707 82.1439 8.19095 81.4411 8.8958C80.737 9.60064 80.1809 10.4421 79.7887 11.3965C79.3957 12.3509 79.1968 13.3806 79.1968 14.4562C79.1968 15.5323 79.3957 16.5572 79.7887 17.502C80.1813 18.448 80.7374 19.2895 81.4406 20.0031C82.1439 20.7171 82.9825 21.2858 83.9325 21.6934C84.883 22.1014 85.9301 22.3081 87.044 22.3081C88.1579 22.3081 89.2093 22.1014 90.1693 21.6934C91.1274 21.2858 91.9661 20.7171 92.6616 20.0031C93.3553 19.2895 93.9114 18.448 94.3135 17.5024C94.7152 16.5559 94.9193 15.531 94.9193 14.4562C94.9193 13.3819 94.7152 12.3522 94.3135 11.396C93.9114 10.4425 93.351 9.60108 92.6474 8.8958Z"
            fill="#B080BC" />
    <path fill-rule="evenodd" clip-rule="evenodd"
            d="M100.321 18.1474C99.8701 17.6812 99.2872 17.4443 98.5896 17.4443C97.8915 17.4443 97.3087 17.6812 96.8583 18.1474C96.4079 18.6132 96.1792 19.2095 96.1792 19.9179C96.1792 20.6267 96.4031 21.2225 96.8445 21.6888C97.2858 22.155 97.8734 22.3914 98.5896 22.3914C99.2872 22.3914 99.8701 22.155 100.321 21.6888C100.771 21.2221 101 20.6267 101 19.9179C101 19.21 100.771 18.6141 100.321 18.1474Z"
            fill="#B080BC" />
</svg>
